<?xml version="1.0" standalone="no"?>
<!DOCTYPE svg PUBLIC "-//W3C//DTD SVG 20010904//EN"
 "http://www.w3.org/TR/2001/REC-SVG-20010904/DTD/svg10.dtd">
<svg version="1.0" xmlns="http://www.w3.org/2000/svg"
 width="1280.000000pt" height="640.000000pt" viewBox="0 0 1280.000000 640.000000"
 preserveAspectRatio="xMidYMid meet">
<metadata>
Created by potrace 1.15, written by Peter Selinger 2001-2017
</metadata>
<g transform="translate(0.000000,640.000000) scale(0.100000,-0.100000)"
fill="#8bc34a" stroke="none">
<path d="M7957 5894 c-3 -10 -11 -68 -17 -129 -15 -150 -16 -154 -39 -148 -16
4 -22 -3 -30 -34 -6 -21 -11 -50 -11 -64 0 -15 -7 -32 -15 -39 -22 -18 -40 1
-54 55 -7 27 -17 45 -25 45 -15 0 -20 -11 -31 -70 -4 -19 -16 -42 -28 -51 -18
-15 -21 -30 -25 -133 l-5 -116 -41 0 c-22 0 -54 -7 -70 -15 -16 -9 -35 -14
-41 -11 -15 5 -33 96 -41 209 -4 49 -12 94 -19 100 -6 7 -15 24 -18 39 -7 27
-58 64 -70 51 -4 -3 3 -19 14 -35 12 -16 18 -32 14 -36 -3 -4 -11 1 -16 11
-16 27 -29 20 -29 -17 0 -41 -29 -97 -49 -94 -8 2 -21 26 -30 53 -38 118 -69
31 -96 -265 -7 -85 -20 -173 -29 -196 -8 -22 -22 -128 -31 -235 -9 -107 -22
-273 -30 -369 -8 -96 -15 -180 -15 -187 0 -23 18 -14 24 12 8 30 26 33 26 5 0
-28 80 -161 93 -153 6 4 7 -4 3 -23 -9 -36 -24 -481 -26 -749 -1 -181 -2 -198
-16 -180 -20 27 -29 12 -44 -82 -15 -95 -35 -96 -67 -5 -33 97 -43 97 -54 1
-6 -52 -12 -67 -45 -100 l-37 -38 10 -118 c6 -65 10 -119 9 -119 0 -1 -49 -4
-109 -7 l-107 -6 6 124 7 123 -31 16 c-17 9 -33 20 -36 25 -3 5 -11 53 -17
107 -6 54 -16 102 -22 106 -26 16 -37 -15 -37 -102 0 -107 -4 -120 -40 -120
-35 0 -47 15 -56 70 -9 56 -32 112 -43 106 -4 -3 -11 -38 -14 -77 -5 -54 -11
-78 -27 -93 -38 -38 -66 0 -70 94 -2 54 -15 93 -23 70 -3 -8 -8 -55 -10 -104
-5 -83 -7 -90 -36 -117 -17 -15 -31 -34 -31 -41 1 -21 19 -161 26 -190 4 -21
0 -32 -20 -49 -14 -13 -26 -33 -26 -46 0 -13 -6 -23 -13 -23 -7 0 -45 -16 -86
-35 -40 -19 -80 -35 -89 -35 -10 0 -22 -10 -27 -22 -12 -26 -35 -36 -35 -15 0
22 28 47 53 47 12 0 49 19 82 41 55 38 52 46 -9 23 -14 -5 -16 5 -16 80 0 77
-4 95 -32 157 -18 38 -36 69 -40 69 -16 0 -30 -45 -24 -80 4 -26 2 -41 -8 -49
-19 -16 -33 4 -41 60 -9 61 -19 77 -38 61 -9 -8 -17 -41 -22 -87 -4 -41 -11
-77 -15 -80 -14 -9 -30 30 -31 77 -1 24 -4 54 -8 68 -7 24 -8 23 -19 -15 -28
-99 -45 -246 -52 -435 -10 -253 -10 -881 -1 -1012 6 -101 1 -152 -18 -171 -8
-8 -14 -8 -23 1 -21 21 -26 13 -30 -54 -3 -52 -9 -70 -25 -82 -15 -13 -22 -33
-27 -81 -8 -80 -27 -113 -64 -109 -26 3 -28 7 -37 78 -11 85 -18 100 -46 100
-23 0 -24 8 -4 34 18 24 19 52 4 94 -15 44 -26 32 -34 -38 -10 -88 -27 -88
-37 -1 -5 38 -26 36 -43 -5 -21 -50 -19 -70 7 -88 22 -15 21 -16 -24 -16 l-47
0 -7 62 -7 62 -18 -49 c-10 -28 -23 -69 -29 -92 l-11 -43 -57 0 c-32 0 -65 -6
-74 -13 -9 -6 -21 -35 -28 -64 -6 -29 -18 -57 -26 -64 -8 -6 -14 -29 -14 -49
0 -47 -8 -70 -25 -70 -18 0 -25 24 -25 89 0 32 -6 78 -13 102 -8 24 -12 50 -9
58 3 10 0 12 -12 8 -10 -4 -52 -7 -94 -7 l-77 0 3 -123 c3 -106 2 -126 -13
-141 -27 -26 -39 -15 -56 55 -9 35 -25 83 -37 106 -12 23 -22 48 -22 56 0 21
-32 46 -68 53 -28 6 -32 4 -32 -16 0 -27 -21 -22 -35 8 -14 31 -19 28 -38 -25
l-17 -48 5 65 c3 36 8 112 12 169 6 98 5 103 -13 100 -11 -3 -30 -26 -45 -56
l-27 -52 -4 74 c-2 40 -6 77 -10 80 -18 18 -28 -13 -28 -85 0 -86 -14 -140
-31 -123 -6 6 -14 48 -19 94 -8 88 -16 119 -31 119 -5 0 -9 -1 -9 -2 0 -2 -7
-41 -15 -88 -8 -47 -15 -86 -15 -88 0 -2 -16 0 -35 4 -30 5 -36 3 -44 -18 -5
-13 -7 -63 -4 -111 l6 -87 -31 0 c-18 0 -32 6 -36 16 -3 9 -6 63 -6 120 0 91
-3 107 -20 124 -15 15 -20 34 -21 78 -1 72 -11 106 -30 110 -34 6 -50 -81 -24
-132 18 -35 18 -36 0 -36 -34 0 -39 40 -46 404 -5 231 -11 362 -18 369 -6 6
-11 23 -11 37 0 14 -5 31 -12 38 -8 8 -8 15 -1 24 29 35 48 237 25 260 -7 7
-4 19 9 38 20 26 20 29 4 121 -10 52 -20 178 -24 281 -3 102 -10 190 -14 195
-5 4 -15 0 -22 -10 -13 -18 -14 -17 -20 2 -3 12 -14 21 -24 21 -20 0 -31 -35
-31 -101 0 -40 -15 -53 -24 -21 -2 9 -10 44 -16 77 -16 85 -20 95 -35 95 -8 0
-15 -22 -20 -66 -6 -54 -12 -72 -36 -97 -28 -29 -29 -33 -29 -127 0 -105 -3
-112 -55 -125 l-30 -7 25 -10 c32 -12 61 -38 54 -49 -3 -5 -23 -9 -45 -9 l-39
0 0 193 c0 211 -11 305 -36 324 -28 20 -36 4 -34 -71 3 -89 2 -96 -9 -96 -5 0
-15 24 -21 53 -16 65 -40 127 -50 127 -4 0 -12 -30 -18 -66 -6 -37 -14 -69
-17 -73 -11 -10 -33 29 -40 70 -4 21 -15 49 -26 61 -16 20 -20 21 -29 8 -5 -8
-10 -37 -10 -63 0 -43 -4 -52 -37 -82 l-38 -35 2 -77 c1 -43 5 -88 8 -100 5
-23 4 -23 -90 -23 l-95 0 0 88 c0 65 -4 94 -16 111 -27 38 -42 197 -54 575
-15 450 -15 456 79 605 l68 110 -5 160 c-3 89 1 222 7 303 12 138 18 177 40
262 13 52 26 419 17 479 -6 37 -11 47 -26 47 -15 0 -20 -10 -25 -57 -10 -85
-11 -85 -23 -5 -6 41 -13 76 -16 79 -13 14 -36 -10 -41 -44 -13 -74 -14 -77
-35 -58 -10 9 -21 33 -25 53 -4 20 -12 46 -17 57 -11 19 -11 19 -19 0 -4 -11
-8 -41 -8 -67 -1 -52 4 -49 -76 -52 -19 -1 -20 -9 -23 -158 l-3 -157 -32 6
c-17 4 -52 12 -77 18 l-45 11 -6 235 c-3 129 -9 242 -13 252 -7 14 -15 17 -37
12 l-29 -7 0 157 c0 121 3 163 16 186 20 39 10 69 -22 69 -13 0 -24 -1 -24 -2
0 -2 -3 -59 -6 -128 -5 -125 -20 -270 -29 -278 -2 -3 -11 0 -18 6 -23 19 -37
-7 -37 -68 0 -64 -20 -100 -54 -100 -32 0 -42 16 -49 73 -5 49 -20 77 -34 63
-4 -3 -10 -35 -14 -70 -4 -41 -14 -75 -28 -94 -11 -17 -21 -39 -21 -49 0 -10
-4 -23 -10 -29 -5 -5 -10 -52 -12 -104 l-3 -95 -60 -24 c-41 -16 -64 -20 -74
-14 -10 7 -19 42 -28 109 -10 83 -17 105 -43 143 -18 24 -34 59 -37 78 -4 24
-10 33 -22 31 -11 -2 -17 -18 -21 -55 -3 -28 -8 -55 -12 -58 -7 -7 -28 58 -28
88 0 20 -19 23 -25 5 -2 -7 -11 -39 -20 -71 -17 -60 -28 -66 -39 -20 -18 76
-46 105 -46 47 0 -14 -7 -36 -16 -49 -9 -13 -14 -30 -11 -37 2 -7 -2 -29 -10
-48 -23 -56 -35 -324 -31 -700 3 -364 5 -380 52 -419 8 -7 23 -36 33 -64 24
-69 23 -297 -2 -451 -15 -98 -16 -130 -5 -300 7 -105 9 -222 6 -261 -4 -38
-10 -324 -14 -635 -7 -557 -8 -566 -32 -655 l-24 -90 -8 40 c-4 22 -7 61 -7
86 -1 27 -7 51 -15 58 -19 16 -24 6 -35 -72 -10 -73 -23 -102 -51 -117 -32
-17 -41 -13 -29 14 12 27 3 156 -11 156 -19 0 -32 -34 -39 -104 -7 -79 -12
-92 -31 -81 -14 9 -11 686 3 696 12 9 12 113 0 134 -10 17 -12 16 -28 -9 -13
-19 -21 -24 -28 -17 -6 6 -19 11 -28 11 -9 0 -23 10 -31 22 -14 21 -15 18 -21
-42 -4 -34 -11 -68 -16 -74 -5 -6 -13 -40 -17 -76 -8 -76 -19 -105 -29 -78 -4
10 -14 70 -24 135 l-16 118 -39 3 c-68 6 -80 -2 -99 -63 -9 -31 -17 -80 -17
-110 0 -42 -5 -60 -20 -75 -43 -43 -65 -21 -73 73 -2 37 -9 73 -15 80 -5 6
-13 27 -17 45 -8 40 -24 37 -47 -9 l-17 -34 -1 35 c0 19 -4 42 -9 49 -10 16
-19 1 -38 -63 -14 -45 -33 -45 -33 1 0 21 -4 44 -9 52 -12 19 -26 -9 -36 -69
-4 -25 -13 -61 -21 -80 -7 -19 -18 -71 -24 -115 -5 -44 -13 -90 -16 -102 -5
-18 -2 -23 13 -23 11 0 28 9 38 20 27 29 45 25 45 -10 0 -24 4 -30 21 -30 31
0 57 18 74 50 23 45 86 72 176 78 l77 4 5 -63 c3 -35 8 -74 12 -86 5 -16 0
-28 -24 -49 -17 -15 -31 -31 -31 -36 0 -11 71 1 85 14 6 5 9 48 7 103 -4 88
-3 94 18 105 23 13 35 11 147 -22 l73 -21 0 -111 c-1 -136 -15 -295 -29 -309
-6 -6 -25 -5 -55 4 -46 13 -56 27 -56 82 0 15 -4 27 -10 27 -5 0 -10 -20 -10
-45 0 -42 -2 -45 -26 -45 -34 0 -64 17 -64 36 0 12 7 14 30 9 25 -6 30 -4 30
13 0 20 -24 32 -67 32 -26 0 -27 5 -12 49 13 36 5 71 -13 53 -6 -6 -10 -46 -9
-96 l2 -86 -48 8 c-60 9 -127 9 -176 0 -60 -11 -43 7 25 26 41 11 58 20 51 27
-15 15 -139 -19 -173 -47 -33 -28 -65 -31 -75 -6 -4 9 -11 69 -15 132 -15 215
-38 224 -39 15 -1 -174 10 -241 48 -297 27 -40 31 -55 31 -111 0 -70 -14 -93
-50 -82 -18 6 -20 14 -20 106 0 93 -1 100 -25 121 -18 15 -25 32 -25 57 0 20
-5 53 -11 75 -14 51 -29 36 -49 -51 -21 -94 -44 -98 -35 -5 5 46 4 72 -3 76
-16 10 -43 -37 -49 -86 -6 -46 -20 -71 -34 -62 -5 3 -9 39 -9 80 0 45 -4 74
-11 74 -12 0 -37 -57 -46 -103 -3 -18 -16 -42 -29 -55 -18 -17 -24 -34 -24
-65 0 -23 -3 -73 -7 -110 l-6 -68 -101 3 -101 3 -8 65 c-8 64 -10 337 -5 695
1 99 -2 198 -6 220 -8 37 -9 38 -19 17 -14 -31 -25 -27 -33 13 -5 28 -11 35
-29 35 -32 0 -75 -37 -75 -64 0 -19 4 -22 24 -19 14 3 41 0 60 -7 30 -10 36
-16 36 -40 0 -34 -24 -45 -73 -35 -21 5 -29 4 -22 -3 6 -6 19 -12 30 -14 18
-4 17 -6 -7 -18 -16 -7 -28 -18 -28 -23 0 -5 -8 -16 -17 -23 -17 -11 -16 -13
10 -23 16 -6 36 -11 45 -11 11 0 4 -9 -18 -23 l-35 -22 43 -3 c23 -2 42 -7 42
-11 0 -10 -35 -21 -67 -21 -13 0 -23 -4 -23 -10 0 -6 27 -10 61 -10 81 0 77
-24 -5 -28 -46 -2 -55 -6 -47 -16 8 -10 7 -21 -4 -42 -19 -37 -19 -98 -1 -113
8 -7 32 -11 53 -9 37 4 38 4 13 16 -24 11 -24 12 10 9 48 -3 55 -34 10 -43
-30 -6 -30 -7 -13 -26 19 -21 23 -82 6 -99 -15 -15 -44 30 -48 74 -1 19 -8 32
-16 32 -17 0 -26 -122 -10 -138 16 -16 13 -54 -5 -61 -20 -8 -9 -26 17 -26 36
0 56 -33 63 -108 9 -90 -1 -113 -49 -110 -42 3 -54 -7 -33 -28 14 -14 27 -15
99 -5 46 6 193 18 327 27 202 15 246 15 267 4 18 -10 28 -10 38 -2 10 8 82 9
273 1 274 -11 408 -21 361 -27 -45 -6 -26 -27 24 -26 63 0 222 25 235 35 7 6
21 6 35 0 13 -5 57 -6 97 -3 56 4 70 7 62 17 -8 10 4 14 55 20 77 8 144 -1
152 -21 9 -23 21 -6 28 39 11 65 30 93 66 101 69 13 91 1 44 -24 -13 -7 -22
-16 -20 -20 2 -4 60 -10 128 -13 78 -3 138 -12 162 -21 44 -19 55 -20 55 -5 0
18 -84 48 -166 60 -84 12 -109 23 -75 34 24 7 164 -11 191 -25 27 -14 40 -12
34 5 -8 19 -51 31 -153 44 -46 6 -90 16 -98 22 -10 9 -18 8 -31 -4 -16 -15
-87 -36 -121 -37 -12 0 -13 27 -8 168 3 92 11 185 18 206 8 30 8 49 -1 77 -18
54 -9 268 12 301 24 36 85 50 251 57 l147 6 -25 38 -26 37 88 0 88 0 -25 21
c-14 11 -38 27 -54 35 -27 15 -30 14 -57 -5 -29 -21 -29 -21 -29 -1 0 12 -7
20 -17 21 -42 1 73 32 211 56 163 28 166 28 166 -34 0 -35 15 -52 24 -27 3 9
6 31 6 51 l0 35 261 -4 261 -3 28 -33 c26 -31 28 -32 33 -12 5 19 10 21 54 15
43 -6 115 -22 182 -41 38 -11 16 15 -33 38 l-41 19 65 -7 c83 -8 111 -21 130
-61 17 -37 25 -40 46 -18 21 21 31 19 46 -7 16 -29 17 -263 2 -338 -15 -74 -5
-146 19 -142 17 3 18 -6 15 -138 -3 -157 -4 -159 -73 -161 -22 0 -51 -4 -65
-9 -32 -9 -15 -17 65 -27 l60 -8 0 -90 0 -90 -147 -5 c-137 -5 -171 -10 -155
-27 4 -3 70 -7 148 -7 112 -1 142 -4 150 -16 11 -16 3 -125 -11 -150 -10 -18
-12 -14 -31 70 -18 85 -49 106 -49 34 0 -62 -21 -121 -51 -148 -28 -25 -29
-29 -29 -116 l0 -90 -54 0 c-61 0 -66 5 -66 78 0 26 -6 59 -13 73 -8 14 -17
45 -21 70 -8 48 -32 93 -46 84 -5 -3 -14 -30 -21 -60 -14 -61 -29 -73 -29 -22
0 56 -15 61 -33 9 -9 -26 -17 -57 -19 -70 -5 -38 -22 -29 -32 16 -6 29 -14 42
-25 42 -23 0 -41 -20 -41 -46 0 -12 -8 -32 -19 -45 -25 -33 -29 -49 -40 -167
-6 -62 -16 -113 -25 -127 -14 -21 -14 -28 -1 -59 8 -19 15 -63 15 -96 l0 -61
-389 3 c-366 3 -390 4 -410 22 -28 26 -26 36 7 36 48 1 4 16 -110 39 -128 25
-179 26 -220 5 -24 -12 -29 -20 -25 -40 4 -23 2 -25 -32 -22 l-36 3 2 55 c2
54 2 54 -12 25 -13 -30 -13 -30 -14 25 -2 94 -17 124 -39 76 -10 -22 -16 -24
-115 -28 -65 -2 -110 -8 -120 -16 -12 -10 -17 -10 -23 -1 -5 9 -43 10 -148 5
-267 -12 -260 -34 11 -35 170 -1 208 3 197 20 -3 5 14 9 37 9 41 0 41 0 35
-32 -12 -63 -53 -97 -81 -69 -6 5 -32 12 -60 16 -36 5 -46 4 -35 -4 8 -6 26
-11 40 -12 14 0 19 -3 12 -6 -6 -2 -10 -9 -6 -14 6 -11 204 -12 204 -1 0 4 -9
13 -21 20 -16 10 -19 21 -17 55 3 42 3 42 45 45 48 4 48 4 57 -104 5 -58 4
-62 -17 -68 -30 -8 -512 -7 -562 1 -31 5 -35 8 -20 14 11 4 40 8 65 8 33 1 41
4 30 11 -8 5 -26 10 -40 10 l-25 1 25 15 c23 14 20 14 -45 8 -38 -3 -74 -8
-78 -11 -5 -3 -7 -17 -5 -31 3 -26 2 -27 -67 -33 -38 -3 2434 -5 5495 -5 3061
0 5441 3 5290 6 -151 3 -276 7 -278 8 -6 4 10 67 20 79 5 7 25 13 44 15 44 4
45 21 2 29 -69 11 -75 30 -18 59 49 25 51 41 5 38 -19 -1 -37 1 -41 4 -11 12
6 46 26 51 26 7 25 20 -2 32 -12 6 -25 21 -28 35 -5 21 -11 25 -45 25 -36 0
-40 -2 -39 -25 2 -29 -13 -42 -39 -34 -23 7 -79 -5 -72 -16 3 -5 24 -11 48
-15 59 -10 67 -20 67 -81 l0 -54 -52 -1 c-56 0 -98 -12 -82 -21 5 -3 37 -9 71
-13 67 -7 78 -20 66 -75 -5 -26 -8 -27 -86 -34 -45 -3 -142 -6 -214 -6 l-133
0 0 26 c0 40 18 63 55 70 19 3 35 11 35 16 0 15 -298 5 -328 -11 -21 -11 -22
-14 -9 -29 8 -9 17 -29 21 -45 l6 -27 -212 0 c-240 0 -383 9 -370 22 15 15
204 22 246 8 29 -9 40 -9 51 0 32 27 16 48 -70 94 -46 26 -87 51 -90 56 -10
16 77 12 125 -5 23 -8 47 -15 52 -15 20 0 -12 27 -52 45 -58 26 -50 38 24 33
74 -4 76 4 7 27 -57 19 -220 22 -278 5 -54 -16 -141 -58 -121 -59 9 -1 50 6
90 15 75 16 194 21 206 10 12 -12 -19 -23 -81 -29 -100 -9 -187 -55 -187 -99
0 -10 -11 -23 -24 -27 -13 -5 -26 -17 -30 -26 -5 -14 -2 -16 11 -10 67 28 110
37 198 42 122 5 111 -11 -22 -32 -49 -8 -115 -23 -147 -35 -73 -25 -96 -25
-96 -2 0 10 4 22 9 27 4 6 16 50 25 99 28 142 16 130 162 157 103 19 132 28
148 46 21 24 75 39 103 29 26 -10 1 -28 -49 -36 l-43 -7 28 -11 c16 -7 52 -12
80 -12 47 1 50 2 33 15 -10 7 -16 18 -13 23 3 4 -3 23 -14 40 -10 18 -19 35
-19 39 0 9 88 -5 109 -19 25 -15 38 -4 20 18 -20 24 -48 32 -164 44 -91 10
-113 10 -154 -4 -59 -19 -189 -41 -197 -33 -4 3 -3 35 1 71 9 87 29 111 103
126 31 7 77 19 102 26 30 10 46 11 48 4 3 -7 9 -6 20 2 12 10 16 10 19 1 3 -7
16 -13 31 -13 50 0 11 -13 -80 -26 -104 -16 -218 -50 -218 -66 0 -6 9 -7 23
-3 36 12 70 11 74 -2 2 -7 -17 -23 -44 -37 -40 -21 -44 -25 -23 -25 14 -1 52
6 85 14 33 8 77 14 97 15 20 0 40 5 43 10 3 6 42 10 86 10 78 0 119 11 119 31
0 5 -19 30 -42 55 -31 34 -39 47 -29 54 11 6 11 8 0 13 -11 4 -12 7 -1 18 10
11 18 11 48 0 19 -7 38 -10 41 -7 12 12 -8 36 -29 36 -25 0 -108 35 -108 45 0
4 23 4 50 0 56 -8 73 11 20 22 -17 3 -33 10 -36 14 -6 10 5 15 60 24 27 4 35
10 28 17 -46 46 -387 8 -433 -49 -16 -18 -10 -18 91 11 30 9 89 15 130 15 82
-1 79 -3 -67 -34 -46 -10 -83 -22 -83 -27 0 -4 -22 -8 -49 -8 l-49 0 -25 52
c-30 62 -22 100 25 124 53 28 251 31 222 5 -5 -5 -42 -16 -83 -25 -87 -20
-141 -41 -141 -55 0 -14 -4 -14 55 8 95 36 238 48 349 29 10 -2 21 3 23 9 5
15 -22 27 -122 55 -82 23 -98 34 -61 44 36 9 126 -4 154 -22 22 -14 22 -14 22
29 0 62 -17 102 -48 117 -51 23 -117 40 -161 40 -35 0 -42 3 -33 12 19 19 167
15 190 -5 30 -27 42 -21 42 22 0 32 -6 44 -31 65 -17 14 -38 26 -47 26 -9 0
-24 5 -32 10 -9 6 20 7 79 3 84 -5 94 -4 88 10 -3 9 -1 18 6 20 16 6 -3 38
-32 53 -32 16 -34 20 -22 43 10 17 7 23 -14 37 -14 9 -25 23 -25 30 0 8 -10
14 -24 14 -14 0 -28 5 -31 10 -11 18 -207 6 -271 -16 -18 -6 -18 -6 1 14 16
17 44 24 146 36 70 9 147 13 173 10 54 -8 59 3 20 39 -25 24 -26 25 -9 51 18
27 14 56 -8 56 -7 0 -31 9 -52 20 -28 14 -49 18 -70 14 -16 -4 -42 -6 -57 -6
-14 0 -29 -5 -32 -13 -2 -7 -18 -16 -35 -20 -16 -3 -40 -14 -53 -24 -13 -10
-42 -28 -65 -41 -24 -13 -43 -27 -43 -32 0 -13 17 -9 30 7 18 22 32 18 20 -5
-6 -12 -22 -26 -36 -32 -40 -18 -56 7 -56 84 0 108 13 231 29 266 15 32 66 82
84 82 15 0 10 -26 -9 -51 -10 -13 -25 -42 -33 -64 -14 -37 -14 -42 2 -58 15
-17 20 -17 46 -4 40 21 195 58 306 74 45 6 58 22 26 31 -20 6 -15 8 21 12 43
5 45 6 51 45 4 21 12 41 18 43 27 9 -4 21 -69 28 -38 3 -77 12 -87 19 -15 11
-14 14 9 29 27 18 118 36 179 36 41 0 49 -13 49 -85 0 -22 5 -57 11 -78 8 -31
14 -38 32 -35 17 2 26 16 40 63 27 90 39 108 77 121 19 6 60 19 90 29 30 9
101 20 157 23 l103 5 0 -50 c0 -108 17 -133 68 -97 16 11 22 25 22 53 0 41 14
61 43 61 26 0 16 23 -13 30 -26 6 -40 30 -17 30 25 0 82 -45 85 -68 3 -19 6
-21 17 -12 11 9 24 5 60 -21 32 -23 48 -30 56 -22 19 19 5 46 -28 55 -34 9
-93 70 -74 76 7 2 17 0 24 -6 7 -5 30 -15 52 -22 22 -7 47 -18 55 -25 8 -7 42
-20 74 -29 88 -22 109 -48 114 -138 4 -63 3 -71 -10 -60 -18 14 -28 6 -28 -23
0 -32 24 -50 40 -30 7 8 21 15 31 15 12 0 21 9 24 25 3 14 7 36 10 50 18 85
34 -73 36 -349 1 -155 9 -228 27 -234 9 -3 12 24 12 114 0 64 2 115 5 112 3
-2 9 -99 15 -214 9 -206 14 -245 64 -574 13 -91 32 -239 41 -329 9 -91 21
-175 26 -188 5 -14 9 -46 9 -72 0 -34 5 -53 19 -65 13 -12 20 -37 25 -89 10
-114 12 -117 60 -116 29 2 33 3 14 6 -29 5 -27 -1 -62 188 -8 44 -17 87 -20
95 -3 8 -10 58 -16 110 -15 146 -36 297 -69 510 -42 269 -49 343 -56 590 -4
118 -11 229 -16 245 -6 17 -16 143 -25 280 -8 138 -18 278 -23 311 -7 47 -6
72 4 100 8 22 14 55 14 74 1 41 -22 113 -37 118 -15 5 -44 -44 -51 -86 -3 -19
-11 -37 -18 -39 -13 -5 -18 11 -28 77 -6 44 -29 89 -40 78 -3 -3 -10 -34 -16
-69 -6 -35 -12 -65 -14 -67 -10 -11 -25 14 -45 73 -31 94 -37 90 -55 -45 -3
-24 -15 -59 -26 -77 -19 -31 -20 -43 -14 -133 l7 -100 -53 16 c-86 25 -87 28
-92 173 -2 87 -8 139 -20 168 -22 56 -34 128 -19 119 15 -9 27 13 14 26 -8 8
-18 6 -36 -6 -23 -15 -26 -23 -26 -75 0 -110 -22 -123 -40 -23 -13 69 -25 102
-44 114 -20 13 -26 -4 -26 -72 0 -80 -6 -100 -30 -100 -17 0 -29 30 -45 117
-7 35 -28 58 -45 48 -5 -3 -10 -33 -10 -66 0 -66 -16 -114 -49 -143 -24 -22
-27 -60 -10 -166 13 -83 3 -110 -41 -110 -28 0 -29 1 -35 68 -12 131 -15 141
-45 157 -29 15 -70 86 -70 121 0 26 -26 61 -37 51 -4 -5 -8 -39 -8 -75 0 -61
-2 -67 -22 -70 -28 -4 -37 15 -52 103 -13 70 -26 99 -42 89 -5 -3 -9 -49 -10
-102 0 -93 -9 -146 -21 -126 -3 5 -13 34 -23 64 -29 89 -54 103 -56 32 l-2
-37 -8 45 c-11 63 -11 244 0 273 5 14 35 53 65 87 59 66 66 88 41 137 -23 46
-37 224 -33 419 2 132 6 177 16 183 11 7 12 36 2 167 -23 311 -21 299 -54 299
-21 0 -31 6 -37 23 -17 46 -39 23 -54 -57 -13 -69 -31 -77 -38 -16 -6 59 -23
78 -43 51 -7 -11 -16 -36 -19 -55 -8 -49 -27 -85 -48 -89 -12 -2 -15 1 -11 12
3 8 -1 25 -10 38 -9 12 -16 41 -16 65 0 46 -25 73 -67 73 -22 0 -25 -7 -35
-110 -2 -14 -9 -25 -18 -25 -11 0 -18 18 -25 59 -11 63 -27 80 -44 47 -7 -13
-8 -36 -1 -71 7 -38 7 -58 -2 -73 -7 -12 -17 -69 -23 -127 -10 -103 -11 -105
-35 -105 -24 0 -25 2 -22 58 1 34 -3 69 -12 85 -7 15 -16 45 -20 67 -14 79
-27 115 -41 115 -15 0 -20 -13 -33 -90 l-8 -45 -8 40 c-13 70 -27 115 -35 115
-13 0 -31 -49 -31 -84 0 -44 -11 -96 -20 -96 -4 0 -12 19 -19 43 -7 23 -20 53
-28 66 -22 34 -33 11 -33 -72 0 -46 -6 -79 -17 -100 -16 -29 -18 -62 -16 -307
1 -198 6 -302 17 -370 18 -108 21 -196 6 -205 -18 -11 -10 -42 23 -91 18 -27
38 -62 45 -78 18 -41 35 -452 28 -671 -3 -99 -5 -188 -5 -197 3 -68 0 -174 -8
-383 -10 -235 -11 -241 -36 -279 -15 -21 -29 -53 -33 -72 -12 -62 -76 -67 -90
-6 -18 81 -26 102 -38 102 -17 0 -26 -22 -26 -65 0 -49 -16 -85 -58 -128 l-37
-38 -3 -104 -4 -105 -83 0 c-64 0 -86 4 -96 16 -9 11 -15 52 -17 118 -3 119
-9 156 -22 137 -15 -25 -40 -4 -39 31 1 21 3 26 6 13 10 -40 22 -36 28 10 8
51 -7 99 -28 93 -6 -3 -21 -33 -32 -68 -12 -35 -26 -65 -33 -68 -16 -5 -15 24
2 56 62 121 62 123 76 407 6 127 16 225 27 267 15 60 16 70 3 82 -28 25 -68
28 -87 6 -24 -28 -30 -25 -37 14 -4 19 -13 39 -21 46 -23 19 -37 -24 -43 -137
-8 -166 -35 -144 -47 39 -8 119 -17 135 -75 140 -34 3 -35 2 -40 -36 -7 -54
-28 -58 -36 -7 -5 32 -11 41 -26 41 -27 0 -45 -49 -53 -148 -8 -89 -21 -112
-59 -112 -13 0 -37 -3 -54 -6 l-30 -6 -7 58 c-11 99 -16 115 -40 126 -12 5
-28 22 -35 37 -11 24 -13 24 -25 8 -7 -9 -15 -40 -19 -67 -10 -76 -26 -75 -38
4 -4 29 -25 30 -43 2 -18 -27 -23 -81 -11 -108 6 -14 4 -18 -11 -18 -18 0 -19
-7 -15 -88 6 -147 -13 -621 -26 -634 -21 -21 -59 16 -66 64 -9 59 -21 76 -43
62 -11 -7 -22 -32 -28 -67 -5 -30 -18 -63 -27 -74 -12 -13 -18 -47 -23 -135
-9 -131 -15 -152 -41 -126 -15 15 -19 15 -28 2 -16 -21 -46 -7 -46 20 0 12 -5
27 -12 34 -8 8 -16 118 -24 365 -12 357 -26 524 -46 542 -7 7 -9 -22 -4 -100
27 -465 34 -859 15 -870 -6 -4 -12 -5 -14 -3 -2 2 -6 76 -9 163 -4 158 -14
223 -32 217 -5 -2 -14 -25 -20 -51 -15 -66 -24 -79 -41 -56 -7 11 -13 29 -13
41 0 33 -10 54 -26 54 -9 0 -14 -12 -14 -35 0 -19 -4 -35 -10 -35 -5 0 -10
-10 -10 -23 0 -30 -24 -62 -38 -53 -6 4 -16 26 -22 49 -34 139 -41 143 -66 37
-17 -75 -24 -88 -35 -67 -5 8 -4 77 2 153 13 174 15 648 5 942 -8 201 -10 225
-29 248 -25 32 -37 18 -37 -46 0 -50 -15 -86 -24 -60 -3 8 -10 37 -16 64 -6
27 -15 57 -21 68 -15 29 -39 4 -39 -41 0 -44 -13 -66 -34 -58 -11 4 -16 19
-16 47 0 50 -24 110 -43 110 -18 0 -27 -21 -27 -65 0 -72 -41 -125 -97 -125
-18 0 -33 5 -33 10 0 6 -15 10 -34 10 -19 0 -42 3 -51 6 -13 5 -10 10 14 25
29 17 43 49 22 49 -5 0 -16 3 -25 6 -11 4 -16 1 -16 -10 0 -9 -4 -16 -8 -16
-11 0 -42 33 -42 44 0 14 206 2 224 -13 13 -11 17 -11 22 4 13 33 -13 40 -142
40 l-124 0 -6 31 c-3 17 -4 46 -2 65 3 34 4 34 56 37 47 3 53 1 50 -15 -2 -10
-19 -22 -43 -29 l-40 -11 45 -7 c25 -4 68 -6 95 -4 45 3 50 6 53 28 6 39 19
46 45 22 33 -31 56 -15 31 23 -14 21 -15 28 -4 35 22 14 4 36 -53 63 -50 25
-63 27 -190 27 l-137 0 0 35 c0 24 6 37 21 45 17 9 18 14 8 26 -11 13 -9 14
12 10 13 -3 54 -8 92 -11 37 -4 67 -11 67 -16 0 -5 -2 -9 -4 -9 -24 0 -112
-23 -126 -33 -15 -11 -3 -12 80 -9 74 3 111 0 150 -13 28 -9 54 -14 57 -11 10
9 -16 34 -42 40 -14 4 -25 11 -25 16 0 5 -9 18 -20 28 -20 18 -19 19 35 14 30
-2 55 0 55 5 0 5 -22 31 -50 58 -27 27 -50 53 -50 57 0 4 23 8 50 8 28 0 50 5
50 10 0 17 -44 29 -130 36 -112 10 -114 26 -4 24 118 -3 114 -3 114 24 0 29
-22 54 -57 62 -46 12 -187 -3 -236 -24 -51 -23 -65 -47 -21 -36 46 12 62 -51
22 -79 -22 -15 -20 -16 42 -17 68 -1 67 -12 -1 -24 -21 -4 -48 -15 -62 -26
l-24 -19 -7 52 c-8 71 -7 159 2 174 14 22 65 34 173 40 60 3 106 10 103 15 -3
5 0 16 7 25 11 13 10 18 -10 34 -45 37 -176 24 -243 -23 l-28 -19 0 46 c0 49
22 115 39 115 15 0 13 -9 -9 -55 -29 -60 -25 -82 10 -50 22 20 125 45 186 45
94 0 127 28 87 72 -15 17 -14 18 30 18 54 0 62 16 16 32 -51 18 -18 32 84 36
73 3 113 -1 177 -17 111 -28 166 -28 173 0 5 19 7 20 36 4 17 -8 47 -29 66
-47 28 -24 39 -28 48 -19 23 23 -22 59 -133 106 -27 11 -39 35 -18 35 8 0 43
-11 77 -25 50 -21 66 -23 77 -14 8 7 11 15 7 20 -9 8 -250 102 -298 116 -16 4
-31 16 -33 24 -2 13 10 18 60 24 35 5 54 10 43 13 -11 2 -24 8 -30 13 -12 12
-153 11 -334 -1 -200 -14 -215 5 -41 50 71 18 100 20 175 15 137 -10 271 -40
314 -69 20 -14 42 -26 48 -26 6 0 16 -7 23 -15 14 -17 15 -17 -70 -16 l-55 0
45 -20 c25 -11 57 -23 72 -26 15 -3 45 -21 68 -40 33 -28 41 -32 46 -19 4 10
-4 30 -19 49 l-25 33 29 11 c28 11 29 14 23 52 -6 35 -2 46 21 77 25 33 30 35
64 29 l36 -7 -20 22 c-35 39 -148 107 -271 164 l-121 56 -174 0 c-138 0 -189
-4 -244 -19 -50 -13 -87 -16 -130 -12 l-60 6 34 13 c19 6 42 12 52 12 11 0 19
4 19 10 0 14 -99 0 -152 -22 -49 -21 -86 -53 -74 -65 4 -4 44 1 89 10 100 21
103 21 87 2 -7 -8 -20 -15 -30 -15 -9 0 -32 -10 -51 -23 -38 -26 -172 -98
-175 -94 -1 1 2 29 6 62 5 33 12 81 15 107 4 33 12 51 26 58 10 6 76 18 146
26 136 17 172 27 139 40 -10 4 -78 -3 -151 -16 -73 -12 -138 -19 -144 -16 -14
9 -14 52 1 116 8 34 8 54 2 58 -6 4 -9 37 -6 80 4 60 7 71 18 61 10 -8 23 -8
52 4 21 9 83 18 138 21 l99 6 -110 -29 c-122 -31 -171 -49 -162 -57 3 -4 28
-1 54 5 26 6 89 17 138 25 133 21 151 30 146 74 -1 7 12 20 28 30 42 23 39 36
-6 28 -21 -4 -59 -9 -85 -13 -66 -8 -63 13 2 24 69 11 68 27 -2 31 -68 4 -91
23 -55 46 38 25 389 67 412 49 6 -5 15 -21 20 -38 15 -44 51 -46 60 -4 l7 32
52 -7 c28 -3 102 -9 165 -13 140 -8 147 -12 157 -113 8 -85 28 -113 63 -91 10
6 12 19 7 42 -20 100 -20 102 3 90 11 -6 26 -21 33 -34 23 -42 35 -673 14
-695 -3 -3 -17 5 -31 18 -33 31 -43 19 -16 -18 12 -17 21 -38 21 -48 0 -21
-68 -124 -81 -124 -13 0 -12 2 16 40 38 51 32 70 -10 30 -58 -56 -66 -85 -76
-272 -5 -94 -12 -175 -15 -180 -4 -5 -16 -7 -28 -3 -11 4 -48 12 -81 19 -60
12 -60 12 -71 56 l-12 45 -11 -30 c-6 -16 -30 -47 -54 -68 -55 -49 -43 -57 91
-57 75 0 114 -5 138 -16 l34 -16 0 -132 c0 -72 -3 -263 -7 -423 l-6 -293 -30
0 c-32 0 -107 -19 -120 -30 -5 -4 22 -5 60 -3 96 7 96 6 103 -177 3 -82 8
-152 13 -156 4 -4 8 1 8 12 4 57 8 390 6 459 -6 246 0 718 12 900 l14 210 50
55 c27 30 54 67 59 82 6 17 17 28 28 28 10 0 21 7 24 16 3 9 6 174 6 367 0
213 4 366 10 387 6 19 11 108 11 197 0 150 -1 165 -20 189 -12 15 -21 32 -21
39 0 7 -7 18 -15 25 -10 9 -15 9 -15 1 0 -6 -4 -11 -10 -11 -5 0 -10 11 -10
25 0 34 -28 87 -43 82 -7 -2 -17 -25 -22 -52 -6 -27 -16 -50 -22 -52 -11 -4
-43 76 -43 109 0 11 -4 16 -10 13 -5 -3 -10 -17 -10 -30 0 -12 -14 -49 -31
-81 -30 -58 -30 -60 -23 -166 l6 -106 -43 5 c-77 10 -93 22 -101 78 -3 28 -7
76 -7 108 -1 32 -7 73 -15 92 -9 21 -19 107 -26 226 -11 186 -21 247 -33 203z
m-710 -491 c-3 -10 -5 -4 -5 12 0 17 2 24 5 18 2 -7 2 -21 0 -30z m648 7 c3
-6 -6 -15 -21 -20 l-27 -11 7 -84 7 -85 -65 0 -66 0 0 105 0 105 79 0 c44 0
83 -5 86 -10z m467 -20 c54 -15 62 -37 60 -169 -1 -63 -4 -116 -6 -118 -2 -2
-18 8 -35 22 -30 26 -31 29 -31 113 0 95 -9 123 -33 104 -9 -8 -17 -42 -21
-89 -8 -90 -11 -96 -36 -83 -23 13 -49 88 -57 168 l-6 62 64 0 c35 0 81 -5
101 -10z m-917 -69 c7 -13 -20 -27 -70 -35 -22 -4 -53 -9 -69 -13 l-30 -5 26
-12 25 -11 -43 -21 -44 -21 0 33 c0 25 7 38 25 50 52 34 166 56 180 35z
m-4948 -47 c2 -6 -5 -14 -17 -17 -14 -3 -20 -13 -20 -32 0 -18 -6 -29 -20 -32
-27 -7 -25 -22 5 -33 14 -5 25 -15 25 -21 0 -6 -7 -9 -15 -5 -18 7 -19 -7 -3
-51 6 -18 9 -35 5 -39 -8 -8 -150 -33 -159 -27 -16 9 -8 139 11 193 18 51 22
56 63 67 51 14 120 12 125 -3z m123 -123 c0 -89 -4 -133 -13 -145 -12 -16 -14
-16 -26 -2 -16 19 -10 214 8 259 21 53 31 18 31 -112z m4814 103 c20 -8 21
-30 1 -38 -30 -11 -59 17 -38 37 8 9 17 9 37 1z m543 -26 c-3 -8 -6 -5 -6 6
-1 11 2 17 5 13 3 -3 4 -12 1 -19z m-4902 -27 c37 -16 45 -25 51 -56 9 -52 -4
-204 -22 -240 -16 -32 -27 -167 -43 -513 -4 -106 -11 -195 -14 -198 -3 -3 -16
2 -29 10 -14 9 -49 23 -79 32 -30 9 -61 22 -69 29 -8 6 -30 19 -47 29 -18 9
-47 23 -65 33 -27 14 -57 15 -237 9 -179 -5 -221 -10 -321 -35 -129 -31 -291
-90 -362 -129 -55 -31 -66 -26 -79 40 -11 58 -11 263 1 313 9 41 44 80 62 69
5 -3 -3 -17 -18 -30 -14 -14 -24 -27 -22 -29 2 -2 55 20 118 50 63 30 121 55
128 55 6 0 12 5 12 10 0 7 -13 9 -32 6 -18 -3 -67 -10 -108 -17 -41 -6 -90
-18 -109 -25 -48 -20 -52 -7 -9 29 39 34 142 78 218 94 35 8 41 12 27 18 -23
10 -125 -15 -199 -49 -31 -14 -59 -26 -62 -26 -3 0 -6 19 -6 43 0 45 25 79 77
106 30 15 53 14 28 -2 -66 -39 -84 -53 -88 -68 -12 -45 12 -40 232 52 31 13
21 22 -26 24 -43 1 -59 29 -23 40 15 5 19 12 15 25 -7 21 3 25 85 36 30 3 72
13 93 20 43 15 237 38 282 32 21 -2 31 -9 35 -27 7 -31 30 -40 30 -12 0 34 23
35 143 11 62 -13 150 -28 197 -35 47 -7 93 -16 103 -20 23 -10 37 -37 37 -74
l0 -31 -70 0 c-40 0 -70 -4 -70 -10 0 -5 12 -10 28 -10 15 0 56 -7 91 -15 69
-17 103 -13 83 7 -17 17 -15 74 3 92 18 17 20 47 4 63 -7 7 -14 55 -17 108 -7
139 -33 138 -47 -3 -4 -39 -11 -74 -15 -77 -29 -18 -51 127 -35 231 l7 46 45
-6 c25 -3 64 -15 88 -25z m-186 -113 c1 -20 -3 -40 -9 -43 -6 -4 -10 24 -9 77
1 71 2 77 10 43 4 -22 8 -57 8 -77z m-899 20 c0 -40 -6 -84 -13 -98 -17 -33
-51 -33 -55 -1 -4 26 -30 71 -41 71 -3 0 -4 -23 -3 -50 2 -28 1 -61 -2 -73 -5
-21 -70 -67 -95 -67 -14 0 -15 141 -1 192 9 32 16 38 48 44 20 4 44 13 53 20
12 11 65 28 102 33 4 1 7 -32 7 -71z m5340 64 c0 -4 -17 -14 -37 -22 l-38 -14
35 -6 35 -6 -48 -24 c-58 -30 -74 -20 -49 30 14 29 24 36 57 41 22 3 41 7 43
8 1 0 2 -3 2 -7z m5 -111 c-12 -11 -75 -25 -75 -16 0 8 41 24 65 24 11 1 15
-3 10 -8z m15 -66 c0 -12 -86 -45 -117 -45 -48 0 -40 17 15 34 48 15 102 20
102 11z m548 -511 c32 -13 33 -14 18 -36 -11 -15 -16 -44 -16 -85 0 -35 -3
-63 -7 -62 -5 0 -35 10 -68 22 -67 25 -72 34 -74 130 l-1 58 58 -6 c31 -4 72
-14 90 -21z m2610 -68 c2 -49 0 -96 -3 -104 -9 -25 -25 0 -39 59 -15 71 -37
72 -52 3 -26 -116 -48 -89 -45 54 1 60 28 84 89 80 l47 -3 3 -89z m-2883 70
c19 -13 44 -96 45 -147 0 -24 -4 -26 -80 -38 -91 -15 -101 -11 -126 47 -16 38
-18 80 -5 100 7 12 109 50 137 51 5 1 19 -5 29 -13z m101 -72 c7 -60 -1 -100
-16 -74 -13 24 -30 129 -23 146 10 28 31 -10 39 -72z m3069 55 c14 -14 18
-161 5 -179 -16 -24 -40 15 -40 66 0 47 -24 79 -41 53 -5 -8 -9 -34 -9 -59 0
-50 -14 -81 -29 -65 -20 22 -42 191 -26 207 8 7 129 -12 140 -23z m-3508 15
c-3 -3 -12 -4 -19 -1 -8 3 -5 6 6 6 11 1 17 -2 13 -5z m688 -15 c4 -12 0 -38
-8 -58 -8 -20 -19 -47 -25 -61 -20 -50 -25 8 -7 76 18 67 29 79 40 43z m193
-98 c2 -13 -6 -46 -18 -72 -14 -28 -20 -55 -16 -66 7 -16 9 -16 26 7 11 14 27
44 36 68 12 29 23 42 36 42 30 0 33 -28 6 -58 -14 -15 -34 -41 -46 -58 -27
-40 -59 -49 -75 -23 -6 10 -17 19 -23 19 -6 0 -24 10 -39 21 -15 12 -41 25
-58 29 -38 8 -40 26 -7 112 l21 57 77 -27 c65 -23 78 -31 80 -51z m-737 14
c26 -82 30 -115 15 -115 -20 0 -34 20 -61 91 -19 48 -22 65 -13 71 26 16 43 2
59 -47z m3146 -12 c-2 -16 -4 -5 -4 22 0 28 2 40 4 28 2 -13 2 -35 0 -50z
m-424 30 c-7 -2 -19 -2 -25 0 -7 3 -2 5 12 5 14 0 19 -2 13 -5z m-68 -13 c3
-5 -1 -10 -9 -10 -9 0 -16 5 -16 10 0 6 4 10 9 10 6 0 13 -4 16 -10z m-2710
-71 c33 -81 32 -84 -45 -109 l-41 -13 -49 48 c-57 57 -62 52 -20 -17 32 -51
37 -73 19 -83 -12 -8 -49 22 -49 40 0 7 -9 20 -20 30 -11 10 -20 28 -20 40 0
28 36 75 58 75 9 0 40 13 67 29 28 16 55 29 61 30 6 1 24 -31 39 -70z m2655
56 c0 -16 -27 -32 -37 -21 -7 7 16 36 28 36 5 0 9 -7 9 -15z m130 -71 c0 -34
-4 -53 -10 -49 -5 3 -10 28 -10 56 0 27 5 49 10 49 6 0 10 -25 10 -56z m-135
16 c-3 -5 -15 -10 -26 -10 -11 0 -17 5 -14 10 3 6 15 10 26 10 11 0 17 -4 14
-10z m-7447 -31 c9 -24 -4 -185 -18 -217 -8 -19 -16 -23 -48 -20 l-37 3 1 106
c2 127 11 149 60 149 26 0 37 -5 42 -21z m-170 -1 c17 -17 15 -33 -3 -18 -9 7
-19 10 -23 6 -4 -4 -9 -57 -10 -117 l-4 -109 -56 0 c-32 0 -63 4 -69 8 -12 8
-33 119 -32 177 0 48 15 9 24 -59 8 -69 13 -86 27 -86 7 0 8 31 3 88 -5 68 -4
91 7 99 26 22 118 29 136 11z m256 -14 c4 -15 0 -38 -9 -57 -9 -18 -19 -54
-22 -82 -3 -27 -10 -57 -15 -65 -12 -20 -1 171 12 205 12 32 26 32 34 -1z
m114 0 c26 -18 28 -43 8 -105 -8 -24 -17 -61 -21 -81 -9 -56 -74 -91 -103 -55
-12 15 20 220 38 242 16 19 50 19 78 -1z m7229 -20 c-9 -9 -28 6 -21 18 4 6
10 6 17 -1 6 -6 8 -13 4 -17z m-7833 -92 c5 -45 6 -85 3 -88 -2 -3 -32 -14
-66 -24 -54 -16 -63 -17 -76 -3 -23 22 -18 39 5 18 19 -18 20 -17 20 2 0 11
-4 44 -10 72 -12 66 -3 86 47 99 65 17 67 15 77 -76z m7890 79 c9 -13 -4 -41
-19 -41 -6 0 -20 -9 -30 -20 -10 -11 -22 -20 -27 -20 -16 0 3 44 28 68 27 24
40 27 48 13z m348 -42 c6 -56 18 -75 44 -65 13 5 16 16 12 56 l-5 50 56 1
c151 3 191 -2 191 -26 0 -7 -4 -17 -10 -20 -5 -3 -10 -15 -10 -26 0 -14 -5
-19 -17 -17 -14 3 -17 12 -15 41 3 44 -18 51 -36 12 -7 -14 -25 -33 -41 -43
l-29 -16 46 -18 c26 -10 64 -18 85 -18 21 0 47 -5 58 -10 15 -9 19 -7 19 6 0
9 -9 18 -20 21 -25 7 -25 15 0 38 13 11 18 25 14 37 -10 33 23 20 37 -14 10
-24 13 -98 14 -289 0 -142 -3 -260 -6 -264 -4 -3 -40 1 -80 9 -140 29 -311 45
-359 35 -78 -17 -157 -22 -164 -10 -7 10 18 16 54 13 8 -1 30 1 48 4 24 4 32
10 30 22 -3 15 12 17 140 20 89 2 141 6 137 12 -13 22 -386 0 -507 -29 -21 -5
-38 -5 -38 -1 0 8 103 48 205 78 33 10 60 22 60 27 0 6 -20 16 -45 24 -25 8
-54 17 -65 22 -18 7 -17 8 6 8 26 1 89 20 89 26 0 2 -11 16 -25 31 -14 15 -25
24 -25 20 0 -4 -9 -2 -20 4 -11 6 -18 15 -15 21 9 14 43 11 69 -7 14 -8 27
-11 30 -6 10 17 -35 46 -80 52 -56 6 -58 24 -3 28 32 3 39 7 35 18 -3 9 -6 20
-6 25 0 5 -17 9 -38 9 -47 0 -58 9 -34 26 15 12 13 13 -17 14 -53 0 -27 14 37
20 60 5 70 19 25 33 -56 17 -57 17 -46 28 12 12 126 37 174 38 l36 1 5 -51z
m-7543 17 c9 -11 7 -27 -13 -73 -28 -68 -36 -115 -19 -120 8 -3 20 23 34 69
12 40 30 82 40 93 18 19 20 19 52 2 35 -20 73 -65 62 -75 -3 -3 -10 0 -16 8
-11 17 -14 13 -59 -75 -17 -35 -32 -51 -48 -53 -35 -5 -91 17 -109 44 -14 22
-14 26 1 48 8 14 19 44 22 68 11 72 29 93 53 64z m-855 -42 c9 -23 7 -64 -3
-64 -9 0 -21 34 -21 63 0 21 16 22 24 1z m5665 2 c-83 -19 -92 -28 -39 -41 43
-11 41 -12 -65 -17 -96 -5 -121 -10 -184 -37 -40 -18 -88 -35 -107 -38 -34 -6
-34 -5 -24 21 20 54 31 66 58 66 15 0 50 7 77 16 69 21 208 42 280 42 l60 0
-56 -12z m-5721 -23 c29 -78 43 -136 35 -144 -5 -5 -27 -10 -48 -12 -39 -2
-40 -1 -72 58 l-33 60 37 33 c44 39 67 41 81 5z m469 -20 c-3 -10 -5 -4 -5 12
0 17 2 24 5 18 2 -7 2 -21 0 -30z m7694 -23 c10 -6 19 -15 19 -21 0 -5 -13 -3
-30 6 -16 9 -30 18 -30 20 0 8 20 6 41 -5z m-8297 -43 c30 -39 50 -87 36 -87
-14 0 -91 100 -84 111 10 16 22 10 48 -24z m8196 23 c0 -5 -4 -10 -9 -10 -6 0
-13 5 -16 10 -3 6 1 10 9 10 9 0 16 -4 16 -10z m28 -45 c-25 -19 -48 -46 -52
-60 -9 -34 3 -75 21 -75 10 0 13 -6 8 -17 -11 -31 -18 -73 -11 -73 4 0 16 5
28 11 11 6 32 8 46 4 l27 -8 -30 -13 c-16 -7 -42 -13 -58 -14 -35 0 -44 23
-53 129 -7 81 -1 131 16 131 5 0 7 -7 4 -15 -8 -20 -3 -19 36 10 19 14 40 25
48 25 8 0 -5 -16 -30 -35z m-2075 -2 c-7 -2 -19 -2 -25 0 -7 3 -2 5 12 5 14 0
19 -2 13 -5z m-188 -20 c17 -10 13 -12 -25 -17 -25 -3 -84 -8 -131 -11 -55 -3
-103 -12 -130 -25 -24 -11 -64 -20 -89 -20 -26 0 -67 -11 -98 -25 -30 -14 -56
-25 -58 -25 -2 0 -4 20 -4 44 0 48 19 76 49 76 10 0 40 3 67 6 l49 6 -25 -21
-25 -21 53 0 c35 0 52 -4 52 -12 1 -8 6 -6 14 5 7 9 18 17 25 17 15 0 14 13
-1 29 -11 11 11 12 122 9 75 -2 144 -9 155 -15z m184 -12 c12 -8 12 -12 2 -25
-8 -9 -18 -16 -23 -16 -6 0 -5 7 2 15 9 10 9 15 1 15 -6 0 -11 5 -11 10 0 12
10 13 29 1z m2154 -16 c-24 -8 -53 -21 -65 -29 -26 -19 -38 -20 -38 -6 0 15
80 49 115 48 27 0 26 -1 -12 -13z m-7422 -28 c136 -30 183 -48 199 -76 6 -13
11 -101 13 -233 l2 -213 -137 4 c-96 2 -138 0 -138 -8 0 -6 17 -11 39 -11 22
0 43 -4 46 -10 3 -6 49 -10 101 -10 67 0 96 -4 99 -13 3 -7 6 -91 7 -187 2
-169 -14 -346 -32 -364 -15 -15 -28 3 -35 54 -7 49 -36 87 -57 74 -4 -3 -8
-34 -8 -70 0 -51 -4 -66 -16 -71 -29 -11 -48 12 -62 76 -20 90 -27 93 -209 87
-81 -2 -172 -7 -200 -11 -56 -7 -73 -25 -24 -25 17 0 33 -5 36 -10 12 -20 -6
-161 -22 -167 -21 -8 -25 0 -37 72 -6 36 -15 66 -21 66 -5 0 -15 -34 -21 -75
-5 -42 -14 -79 -18 -83 -11 -12 -26 19 -26 55 0 51 -25 101 -57 113 -16 6 -81
9 -153 8 -138 -3 -129 -8 -115 59 6 24 33 29 66 12 28 -15 24 -33 -5 -26 -14
3 -27 2 -31 -3 -7 -13 76 -25 131 -18 30 3 50 12 63 28 19 24 19 24 56 6 39
-19 51 -17 42 6 -3 8 -24 17 -46 21 -51 8 -58 36 -8 36 l32 1 -33 29 -32 30
27 1 c16 1 39 4 53 8 l25 7 -24 13 c-13 7 -55 16 -94 20 -73 6 -97 22 -84 55
6 15 17 17 87 10 121 -10 98 10 -27 25 -94 11 -113 10 -145 -4 -49 -20 -48
-29 1 -21 30 4 40 2 45 -10 11 -28 -11 -51 -55 -58 -53 -9 -59 -1 -59 87 0 66
0 67 28 69 46 2 123 -2 230 -14 56 -6 105 -8 109 -4 19 18 -30 28 -187 36 -95
5 -174 11 -176 13 -4 4 20 302 32 400 6 45 8 48 30 43 26 -7 64 8 64 24 0 5
-11 12 -25 16 -33 8 -23 21 34 46 53 25 34 37 -27 17 -49 -15 -62 -27 -55 -47
5 -15 4 -15 -13 1 -17 16 -18 20 -4 45 19 32 96 63 221 86 134 25 449 16 600
-17z m5186 27 c-3 -3 -12 -4 -19 -1 -8 3 -5 6 6 6 11 1 17 -2 13 -5z m-452
-84 c3 -5 -1 -10 -9 -10 -9 0 -16 5 -16 10 0 6 4 10 9 10 6 0 13 -4 16 -10z
m5 -50 c0 -5 -6 -10 -14 -10 -8 0 -18 5 -21 10 -3 6 3 10 14 10 12 0 21 -4 21
-10z m2570 -99 c0 -11 5 -23 10 -26 18 -11 11 -45 -9 -45 -21 0 -31 26 -24 64
6 30 23 35 23 7z m100 10 c0 -6 -5 -13 -10 -16 -15 -9 -43 3 -35 15 8 13 45
13 45 1z m-80 -140 c0 -12 -20 -25 -27 -18 -7 7 6 27 18 27 5 0 9 -4 9 -9z
m388 1 c8 -6 14 -35 15 -82 l2 -74 -40 -9 c-60 -12 -80 -13 -83 -2 -2 6 18 17
44 26 64 21 69 39 10 39 -49 0 -76 24 -76 67 0 18 7 23 38 28 20 4 44 8 52 10
8 1 17 3 20 4 3 0 11 -3 18 -7z m-158 -73 c0 -34 -4 -58 -9 -55 -13 8 -24 81
-16 106 12 37 25 10 25 -51z m367 60 c27 -11 27 -11 7 -19 -12 -5 -24 -20 -28
-34 -5 -20 -13 -26 -32 -26 -21 0 -25 -3 -18 -17 4 -10 8 -31 8 -48 1 -28 -2
-30 -37 -33 -36 -3 -38 -2 -28 17 6 11 11 44 11 73 0 86 6 98 51 98 21 0 50
-5 66 -11z m-440 -27 c7 -5 16 -29 19 -54 l6 -45 -48 -17 c-62 -21 -60 -21
-68 16 -3 17 -13 40 -22 49 -20 22 -12 36 29 48 41 12 69 13 84 3z m611 -25
c4 -22 -32 -39 -76 -35 -29 2 -37 7 -37 23 0 41 105 52 113 12z m-741 -69 c15
-21 56 -148 50 -155 -4 -3 -11 6 -17 21 -5 15 -21 43 -35 64 -24 36 -34 82
-16 82 5 0 13 -6 18 -12z m678 -13 c-42 -19 -66 -19 -41 0 11 8 31 15 45 14
26 -1 26 -1 -4 -14z m-3280 -5 c3 -5 -3 -10 -15 -10 -12 0 -18 5 -15 10 3 6
10 10 15 10 5 0 12 -4 15 -10z m2763 -57 c-4 -19 -68 -37 -82 -23 -16 16 15
40 51 40 27 0 34 -4 31 -17z m-2808 0 l55 -7 -40 -7 c-57 -11 -133 -11 -140 0
-5 9 16 16 55 20 8 0 40 -2 70 -6z m2920 -61 c0 -36 -24 -49 -105 -60 -52 -7
-83 -7 -90 -1 -6 6 -3 11 10 15 11 3 52 18 90 34 83 34 95 36 95 12z m80 -17
c0 -2 -9 -9 -20 -15 -22 -12 -44 -5 -35 11 6 9 55 13 55 4z m305 -130 c4 -74
6 -205 3 -291 -3 -134 -6 -157 -21 -165 -25 -14 -21 -29 8 -29 29 0 32 -12 9
-34 -35 -36 -54 -14 -54 63 0 64 -16 106 -45 119 -16 7 -28 26 -36 54 -7 24
-16 47 -21 53 -14 15 -28 -15 -28 -60 0 -22 -4 -46 -9 -54 -12 -18 -24 5 -41
77 -18 78 -34 68 -45 -30 -9 -82 -14 -98 -29 -98 -20 0 -26 23 -26 98 0 37 -5
74 -10 82 -14 22 -154 19 -199 -4 -36 -19 -51 -15 -31 9 17 20 74 35 138 35
l52 0 0 35 c0 29 -5 37 -27 46 -28 11 -130 7 -168 -6 -16 -6 -15 -3 5 14 19
15 39 21 83 21 76 0 73 16 -5 26 -50 6 -58 9 -38 15 38 11 108 10 115 -1 13
-20 27 -10 21 15 -4 17 -2 25 6 25 7 0 24 13 38 30 22 26 32 30 75 31 84 1
132 -6 149 -20 14 -12 19 -11 34 2 9 8 28 17 42 19 21 2 24 8 22 31 -2 18 1
27 11 27 12 0 16 -26 22 -135z m-425 55 c0 -5 -12 -10 -26 -10 -14 0 -23 4
-19 10 3 6 15 10 26 10 10 0 19 -4 19 -10z m-110 -25 c0 -2 -13 -11 -30 -20
-30 -16 -40 -9 -18 13 12 12 48 17 48 7z m-2902 -52 c10 -19 -1 -63 -16 -63
-11 0 -24 58 -16 71 8 14 22 11 32 -8z m155 -18 c2 -11 -121 -31 -130 -21 -3
3 0 13 7 21 10 12 28 15 67 13 29 -2 54 -7 56 -13z m-5408 -54 c23 -6 13 -8
-44 -12 -62 -4 -76 -8 -89 -27 -19 -29 -32 -28 -32 3 0 17 7 29 23 35 26 10
99 11 142 1z m8279 -30 c7 -10 -19 -16 -106 -26 -39 -4 -58 -3 -58 4 0 6 9 11
19 11 11 0 23 5 26 10 8 13 112 13 119 1z m-8254 -31 c0 -11 -40 -11 -85 0
-25 6 -20 8 28 9 32 0 57 -3 57 -9z m5128 -65 c0 -29 0 -29 -8 -5 -4 14 -8 36
-8 50 -1 23 0 23 8 5 5 -11 8 -33 8 -50z m2937 32 c4 -19 5 -47 3 -63 l-4 -29
-12 28 c-14 34 -16 97 -2 97 5 0 12 -15 15 -33z m1445 -22 c10 -6 15 -205 4
-205 -23 0 -75 36 -80 56 -13 52 -55 54 -73 3 -8 -24 -15 -29 -44 -29 l-34 0
-7 61 c-3 34 -6 78 -6 97 l0 35 115 -6 c63 -3 119 -8 125 -12z m-4264 -43
c-12 -11 -18 7 -10 30 l8 23 4 -23 c2 -13 1 -26 -2 -30z m3004 18 c0 -5 -7 -7
-15 -4 -8 4 -15 8 -15 10 0 2 7 4 15 4 8 0 15 -4 15 -10z m-7630 -75 c0 -52
-4 -69 -20 -85 -11 -11 -20 -24 -20 -29 0 -6 -21 -13 -47 -16 -57 -7 -93 -21
-93 -35 0 -12 30 -13 62 -1 13 4 35 11 51 15 l27 6 0 -62 c0 -101 -2 -104 -88
-132 -41 -14 -78 -23 -81 -20 -3 3 -9 49 -12 102 -4 53 -16 135 -27 182 -32
130 -32 124 8 131 19 4 81 7 138 8 l102 1 0 -65z m7624 45 c14 -5 26 -17 26
-26 0 -11 -5 -14 -16 -10 -9 3 -23 6 -32 6 -9 0 -24 5 -32 10 -13 9 -13 11 0
20 19 12 23 12 54 0z m1646 -16 c58 -26 110 -69 110 -90 0 -14 -32 -24 -84
-24 l-39 0 8 -47 c13 -86 12 -98 -12 -101 -35 -5 -54 37 -62 134 -8 101 -3
154 13 154 6 0 36 -12 66 -26z m-930 6 c0 -5 8 -10 19 -10 36 0 65 -144 36
-174 -22 -21 -41 -20 -61 3 -78 91 -92 94 -96 19 l-3 -53 -50 0 -50 0 -7 40
c-4 22 -7 66 -7 97 l-1 57 58 11 c31 6 62 13 67 15 23 8 95 4 95 -5z m-9061
-33 c17 -21 3 -27 -58 -27 l-56 1 40 18 c49 24 59 25 74 8z m5210 4 c18 -12
30 -79 31 -173 l0 -78 -74 0 -74 0 -7 119 c-4 66 -4 124 0 130 7 13 104 14
124 2z m-5055 -7 c9 -3 16 -14 16 -24 0 -16 -6 -18 -37 -13 -55 9 -85 21 -78
33 7 11 74 14 99 4z m8026 -8 c0 -8 -4 -18 -10 -21 -5 -3 -10 3 -10 14 0 12 5
21 10 21 6 0 10 -6 10 -14z m-2817 -18 c13 -9 20 -38 27 -102 6 -50 8 -96 6
-103 -9 -22 -73 -16 -90 9 -22 31 -22 170 0 192 19 19 35 20 57 4z m-655 -125
l3 -123 -48 1 c-39 0 -45 2 -31 12 15 10 15 12 0 23 -9 7 -24 43 -32 80 -8 37
-19 67 -25 68 -5 1 -14 -30 -20 -69 -5 -38 -14 -76 -18 -82 -9 -15 -65 -17
-86 -4 -12 8 -9 11 12 16 40 10 34 29 -5 20 -18 -4 -43 -9 -55 -12 -21 -5 -23
-2 -23 31 0 31 6 40 40 64 36 24 40 31 36 59 l-5 32 62 4 c34 2 91 3 127 3
l65 -1 3 -122z m-4713 93 c16 -12 21 -11 33 1 11 10 26 13 51 8 62 -11 101
-46 88 -79 -5 -13 -13 -13 -59 0 -63 16 -78 17 -78 4 0 -5 18 -14 40 -20 50
-14 67 -35 19 -25 -157 32 -173 37 -156 50 24 17 21 34 -8 41 -14 3 -25 10
-25 14 0 22 68 26 95 6z m8371 -12 c4 -14 3 -29 -2 -34 -5 -5 -50 -14 -101
-20 -50 -5 -99 -13 -107 -16 -20 -8 -20 5 0 34 13 19 24 22 88 22 65 0 74 2
79 20 7 28 35 25 43 -6z m-7942 1 c6 -18 -2 -45 -15 -45 -5 0 -9 14 -9 30 0
32 14 40 24 15z m1021 -21 c96 -13 135 -54 135 -143 0 -56 -8 -71 -39 -71 -41
0 -55 15 -60 66 -8 65 -27 67 -35 3 l-7 -51 -46 5 c-25 3 -49 11 -54 18 -5 8
-9 54 -9 103 l0 88 33 -5 c17 -3 55 -9 82 -13z m4377 -23 c65 -32 79 -46 88
-88 15 -63 24 -233 13 -233 -5 0 -28 17 -50 38 -42 38 -44 45 -55 177 -2 19
-9 30 -18 30 -11 0 -17 -15 -21 -51 -7 -59 -14 -74 -34 -74 -26 0 -45 45 -56
131 -9 73 -8 85 6 95 19 14 66 5 127 -25z m4045 2 c-3 -10 -5 -4 -5 12 0 17 2
24 5 18 2 -7 2 -21 0 -30z m-4265 9 c3 -4 4 -37 1 -75 -7 -77 -16 -84 -99 -74
-96 10 -75 57 25 57 40 0 52 3 41 10 -8 5 -41 10 -72 10 l-58 0 0 46 0 46 78
-7 c42 -4 80 -10 84 -13z m3012 -8 c18 -17 21 -50 6 -59 -5 -3 -10 3 -10 14 0
15 -9 22 -35 27 -36 6 -45 18 -22 27 24 10 46 7 61 -9z m1483 -11 c3 -16 7
-57 7 -93 1 -54 -2 -65 -17 -68 -36 -7 -61 106 -35 163 15 33 36 32 45 -2z
m-9121 -8 c10 -16 17 -48 18 -83 l1 -57 -34 0 c-32 0 -35 3 -45 45 -14 58 -46
70 -46 17 0 -52 -26 -77 -80 -80 l-45 -2 -3 76 -3 76 98 15 c54 8 104 16 110
17 7 0 20 -10 29 -24z m3776 -17 c-10 -22 -11 -21 -11 12 -1 26 2 31 11 22 8
-8 8 -17 0 -34z m4696 30 c-6 -16 -55 -34 -65 -24 -10 10 26 36 50 36 10 0 17
-5 15 -12z m-1128 -38 c19 -12 7 -16 -70 -25 -30 -3 -62 -13 -71 -21 -12 -11
-19 -12 -24 -4 -21 34 122 78 165 50z m-6472 -25 c49 -15 52 -18 72 -71 30
-81 47 -201 31 -217 -10 -9 -17 -6 -37 16 -13 15 -27 40 -30 55 -17 74 -25 99
-38 117 -14 18 -15 15 -16 -42 0 -66 -9 -83 -31 -57 -16 19 -27 214 -12 214 5
0 32 -7 61 -15z m7609 9 c-3 -3 -12 -4 -19 -1 -8 3 -5 6 6 6 11 1 17 -2 13 -5z
m-9381 -26 c31 -10 40 -19 42 -40 2 -15 -2 -37 -8 -49 -11 -20 -17 -21 -88
-15 -129 12 -142 15 -142 41 0 12 3 37 7 55 l6 33 72 -6 c39 -4 89 -12 111
-19z m328 16 c9 -3 16 -15 16 -27 0 -19 -1 -20 -20 -2 -30 27 -28 41 4 29z
m3586 -30 c0 -16 -16 -19 -25 -4 -8 13 4 32 16 25 5 -4 9 -13 9 -21z m4420 6
c-8 -5 -17 -7 -19 -4 -3 3 1 9 9 14 8 5 17 7 19 4 3 -3 -1 -9 -9 -14z m-8070
0 c0 -6 -7 -13 -15 -16 -31 -12 -14 -24 34 -24 54 0 61 -8 61 -68 0 -51 -9
-61 -60 -64 -44 -3 -45 -2 -45 27 0 23 5 31 23 33 29 4 28 18 -4 38 -22 15
-32 15 -80 5 -29 -7 -54 -16 -54 -21 0 -5 12 -18 28 -29 30 -23 14 -29 -32
-11 -22 8 -26 16 -26 47 0 21 4 44 9 51 19 30 161 58 161 32z m8280 5 c0 -10
-53 -26 -67 -20 -24 9 -3 25 33 25 19 0 34 -2 34 -5z m-117 -12 c4 -3 -3 -17
-15 -30 -17 -19 -20 -26 -9 -32 9 -6 6 -14 -15 -30 -33 -26 -58 -28 -26 -2 27
24 28 29 1 33 -21 3 -20 5 11 36 35 33 42 37 53 25z m-213 -8 c0 -8 -54 -32
-87 -40 -40 -8 -47 15 -10 33 22 11 97 16 97 7z m813 -2 c-7 -2 -19 -2 -25 0
-7 3 -2 5 12 5 14 0 19 -2 13 -5z m-4683 -31 c0 -13 -12 -22 -22 -16 -10 6 -1
24 13 24 5 0 9 -4 9 -8z m4601 -77 c-7 -29 -8 -29 -15 -7 -4 13 -5 40 -1 60
l8 37 8 -30 c5 -16 5 -43 0 -60z m-4947 56 c9 -14 -14 -28 -94 -58 -84 -33
-106 -57 -41 -47 45 7 54 -5 24 -31 -10 -7 -29 -23 -43 -34 -21 -18 -23 -22
-10 -31 13 -9 11 -13 -10 -31 l-24 -21 -9 20 c-14 30 1 105 26 143 28 40 62
66 113 84 46 17 61 18 68 6z m476 -10 c0 -9 -151 -54 -158 -47 -7 7 35 26 90
40 65 18 68 18 68 7z m667 -2 l28 -11 -24 -19 c-13 -10 -31 -20 -40 -20 -9 -1
-3 -4 14 -8 22 -4 35 -16 48 -44 22 -47 33 -47 44 1 l9 37 104 -1 c106 -1 189
-18 236 -49 17 -11 24 -12 28 -2 3 8 8 7 16 -5 6 -10 20 -18 30 -18 11 0 37
-15 57 -33 21 -18 50 -41 66 -50 15 -9 38 -24 52 -33 41 -27 31 4 -21 64 -26
29 -43 56 -39 60 12 12 94 -88 104 -126 17 -67 22 -122 11 -122 -5 0 -10 9
-10 20 0 11 -4 20 -9 20 -13 0 -21 -38 -21 -101 0 -31 -3 -71 -6 -88 -6 -27
-10 -31 -41 -31 -18 0 -50 -7 -70 -15 -20 -8 -38 -13 -41 -11 -2 3 -7 28 -11
57 -9 77 -31 77 -31 0 l0 -61 -59 0 c-62 0 -121 -16 -121 -32 0 -6 9 -7 23 -3
38 13 139 17 149 7 7 -7 16 -7 28 0 25 16 46 4 69 -39 l20 -38 1 33 c0 52 16
72 55 72 l35 0 0 -87 c-1 -109 -16 -353 -23 -359 -3 -3 -29 2 -59 11 -64 19
-328 34 -328 18 0 -7 48 -13 123 -17 172 -9 214 -15 238 -35 21 -17 21 -20 10
-177 -6 -87 -11 -320 -11 -517 l0 -358 -767 3 c-423 2 -774 7 -781 11 -18 12
3 37 30 37 27 0 17 23 -13 31 -26 7 -25 8 46 33 l40 15 -46 0 c-56 1 -73 18
-64 60 8 38 28 55 60 49 27 -6 35 9 10 18 -20 8 -19 24 1 24 8 0 12 5 9 10 -3
6 -24 10 -46 10 -45 0 -51 14 -11 28 l27 10 -27 7 c-34 9 -40 37 -36 150 3 75
4 79 28 85 16 4 -4 9 -56 13 -49 5 -93 3 -109 -3 -37 -14 -45 -13 -45 9 0 16
15 21 108 35 59 9 124 16 145 16 31 0 37 3 37 20 0 14 -6 20 -16 18 -10 -2
-19 3 -22 11 -6 19 55 7 80 -16 23 -20 32 -12 24 22 -6 23 -10 25 -69 25 -60
0 -241 -24 -282 -37 -18 -5 -18 -6 5 -16 16 -6 20 -11 12 -14 -7 -3 -27 1 -43
7 -26 11 -34 10 -57 -7 -60 -43 -122 -53 -122 -20 0 16 60 60 104 77 83 31
213 52 284 45 55 -4 72 -3 67 6 -11 18 -71 39 -110 39 -72 0 -31 18 78 34 146
22 159 25 152 36 -3 6 -42 9 -86 7 -74 -2 -82 0 -100 22 -10 13 -19 27 -19 31
0 12 40 20 105 20 63 0 92 11 81 28 -12 19 -96 25 -201 13 -118 -13 -191 -35
-205 -61 -5 -10 -22 -21 -37 -24 -16 -4 -46 -19 -67 -33 -33 -21 -37 -27 -23
-35 12 -6 25 -3 44 11 30 21 141 41 220 40 45 0 40 -3 -85 -44 -140 -45 -182
-66 -182 -90 0 -21 10 -19 37 7 13 12 23 17 23 11 0 -6 -23 -32 -52 -58 l-52
-47 -8 28 c-4 15 -10 64 -14 109 -6 80 -6 82 21 103 14 12 61 34 103 51 80 30
435 111 490 111 17 0 34 5 38 12 7 11 -133 6 -241 -8 l-40 -5 22 19 c15 13 44
21 94 26 75 7 88 11 75 23 -11 12 -146 7 -159 -6 -6 -6 -27 -11 -46 -11 -22 0
-31 4 -25 9 12 12 136 41 175 41 42 0 35 28 -15 60 l-38 25 63 18 c69 20 97
37 62 37 -50 0 -68 25 -38 50 26 21 15 55 -17 55 -16 1 -33 6 -40 13 -7 7 -36
12 -65 12 -29 0 -53 5 -53 10 0 6 39 10 98 10 66 0 92 3 82 10 -8 5 -26 10
-40 10 -42 0 -8 19 49 27 30 5 55 13 55 18 2 17 -60 17 -109 1 -25 -9 -72 -16
-105 -16 -32 0 -62 -4 -65 -10 -8 -12 -105 -14 -105 -1 0 12 132 49 219 61 41
6 82 17 90 24 9 8 30 17 46 21 86 18 82 17 60 25 -39 16 -119 11 -158 -10 -44
-24 -186 -60 -235 -60 -22 0 -41 -8 -55 -24 -12 -12 -39 -29 -59 -35 -21 -7
-40 -17 -44 -22 -3 -6 -17 -14 -30 -19 -39 -15 -29 -31 16 -24 22 4 40 4 40 0
0 -8 -90 -66 -103 -66 -5 0 -7 93 -5 213 3 224 8 247 49 247 10 0 23 9 29 20
6 11 20 20 30 20 28 0 27 -53 -1 -81 -25 -25 -23 -28 18 -22 28 5 34 11 43 43
6 23 25 51 47 70 39 34 127 80 154 80 9 0 22 7 29 15 14 17 35 21 25 5 -8 -13
-4 -13 31 4 16 8 58 17 94 21 36 4 76 14 88 22 35 22 67 9 88 -34 l19 -38 3
40 c4 59 9 70 27 55 10 -8 35 -10 84 -5 77 8 99 2 80 -21 -7 -9 -31 -14 -63
-14 -56 0 -83 -11 -71 -30 5 -8 27 -9 74 -5 101 10 101 10 101 60 0 24 5 47
10 50 6 4 80 8 165 9 86 2 158 6 162 10 8 8 7 8 40 -5z m-3972 -28 c-3 -11 -1
-22 5 -26 17 -11 11 -43 -10 -50 -30 -10 -129 5 -146 22 -17 18 -18 45 -2 61
7 7 42 12 86 12 68 0 73 -1 67 -19z m4169 -1 c7 -7 -9 -10 -51 -10 -59 0 -81
8 -65 25 10 10 103 -2 116 -15z m180 14 c27 -10 18 -24 -16 -24 -42 0 -78 10
-78 21 0 10 70 12 94 3z m-4171 -21 c-7 -2 -19 -2 -25 0 -7 3 -2 5 12 5 14 0
19 -2 13 -5z m6832 -3 c-3 -5 -13 -10 -20 -10 -8 0 -30 -14 -50 -31 l-35 -31
0 25 c0 13 6 29 13 35 23 19 103 30 92 12z m-8295 -10 c12 -8 12 -10 -3 -16
-9 -3 -25 -3 -34 0 -15 6 -15 8 -3 16 8 6 17 10 20 10 3 0 12 -4 20 -10z
m1030 -20 c-11 -21 -70 -29 -70 -10 0 13 31 29 58 30 20 0 21 -3 12 -20z
m3085 -1 c0 -8 -10 -15 -22 -17 -25 -4 -30 7 -11 26 15 15 33 10 33 -9z
m-3220 -25 c-34 -25 -136 -11 -110 15 14 13 86 18 109 7 19 -8 19 -9 1 -22z
m603 9 c7 -47 -109 -50 -121 -3 -7 28 1 31 63 28 48 -3 55 -6 58 -25z m117 7
c3 -11 3 -29 0 -41 -6 -17 -12 -20 -38 -15 -38 8 -57 23 -57 47 0 15 5 17 29
13 16 -4 32 -1 35 5 11 17 24 13 31 -9z m4180 4 c11 -11 13 -20 6 -27 -12 -12
-65 19 -56 33 9 15 32 12 50 -6z m2925 8 c0 -9 -67 -32 -93 -32 -26 0 -30 20
-5 29 29 12 98 14 98 3z m-360 -26 c0 -43 -27 -59 -50 -31 -7 8 -26 15 -43 15
-35 0 -26 16 13 23 53 9 80 7 80 -7z m-8248 -17 c23 -12 23 -36 1 -43 -10 -3
-39 -5 -64 -5 -26 1 -52 -2 -58 -5 -22 -14 -1 -23 42 -19 33 4 48 1 61 -12 15
-16 16 -20 3 -32 -12 -12 -24 -13 -78 -3 -90 17 -106 29 -101 74 5 39 15 52
52 59 33 7 119 -2 142 -14z m198 16 c0 -3 -12 -17 -27 -30 l-28 -24 28 -1 c17
0 27 -5 27 -15 0 -18 -37 -38 -56 -31 -11 4 -14 1 -9 -13 5 -15 -1 -21 -25
-26 -17 -4 -34 -4 -37 -1 -3 3 -5 32 -4 63 1 41 6 62 18 71 16 12 113 18 113
7z m410 1 c0 -9 -115 -57 -151 -62 -76 -12 -32 19 66 47 62 18 85 22 85 15z
m8140 -6 c-20 -13 -103 -13 -95 0 3 6 30 10 58 10 37 0 48 -3 37 -10z m-4755
-20 c-3 -5 -11 -10 -16 -10 -6 0 -7 5 -4 10 3 6 11 10 16 10 6 0 7 -4 4 -10z
m4624 6 c-10 -10 -79 -24 -79 -16 0 5 8 11 18 13 22 6 67 8 61 3z m-6879 -36
c0 -5 -7 -10 -16 -10 -8 0 -12 5 -9 10 3 6 10 10 16 10 5 0 9 -4 9 -10z m6880
-10 c0 -12 -44 -24 -62 -17 -8 3 -4 9 12 15 32 14 50 14 50 2z m-4718 -15 c0
-5 -5 -11 -11 -13 -6 -2 -11 4 -11 13 0 9 5 15 11 13 6 -2 11 -8 11 -13z
m3219 5 c40 -22 15 -129 -27 -113 -32 12 -44 82 -18 107 18 19 20 19 45 6z
m1019 0 c0 -5 -11 -10 -25 -10 -14 0 -25 5 -25 10 0 6 11 10 25 10 14 0 25 -4
25 -10z m300 4 c0 -5 -63 -34 -75 -34 -14 0 -2 18 18 28 24 12 57 15 57 6z
m-8077 -21 c-7 -2 -19 -2 -25 0 -7 3 -2 5 12 5 14 0 19 -2 13 -5z m6841 -9
c10 -25 7 -104 -4 -104 -15 0 -30 36 -30 73 0 46 21 65 34 31z m1034 -16 c3
-14 -3 -18 -30 -18 -18 0 -40 5 -48 10 -13 9 -13 11 0 20 24 16 74 8 78 -12z
m-7890 -10 c-6 -18 -28 -21 -28 -4 0 9 7 16 16 16 9 0 14 -5 12 -12z m7060
-15 c2 -12 -5 -34 -14 -49 -10 -15 -17 -41 -16 -58 4 -50 -19 -16 -25 38 -8
66 3 98 30 94 14 -2 23 -11 25 -25z m1007 7 c-3 -5 -13 -10 -21 -10 -8 0 -12
5 -9 10 3 6 13 10 21 10 8 0 12 -4 9 -10z m-1580 -20 c0 -9 -11 -16 -29 -18
-25 -3 -28 -1 -18 11 6 7 8 17 4 21 -4 5 4 6 18 4 14 -1 25 -10 25 -18z
m-6844 -15 c22 -14 -14 -33 -76 -40 -58 -6 -66 -9 -71 -31 -11 -44 0 -54 64
-54 40 0 64 -5 72 -15 18 -22 4 -36 -26 -25 -14 6 -52 10 -85 10 -32 0 -59 3
-59 8 0 15 21 138 26 151 3 11 20 13 74 8 39 -3 75 -9 81 -12z m213 -33 c5
-17 6 -38 2 -47 -5 -15 -103 -65 -127 -65 -6 0 -9 23 -7 57 3 55 4 58 33 63
17 4 40 12 50 18 28 16 38 10 49 -26z m179 27 c-14 -14 -105 -24 -130 -15 -32
13 7 26 77 26 48 0 61 -3 53 -11z m6367 3 c0 -5 -13 -21 -30 -37 -34 -33 -40
-21 -9 19 20 25 39 34 39 18z m1475 -12 c8 -7 15 -16 15 -21 0 -15 -43 -49
-62 -49 -9 0 -38 -7 -64 -16 -49 -16 -57 -16 -45 4 4 7 35 17 69 23 73 13 81
32 22 50 -29 9 -46 9 -64 1 -29 -13 -41 -5 -24 16 15 17 129 12 153 -8z
m-7898 -44 c4 -8 17 -16 28 -19 11 -2 -7 -5 -41 -6 -66 -1 -80 5 -63 26 15 17
66 17 76 -1z m6518 4 c-3 -5 -13 -10 -21 -10 -8 0 -14 5 -14 10 0 6 9 10 21
10 11 0 17 -4 14 -10z m283 -11 c12 -5 22 -16 22 -26 0 -13 3 -14 12 -5 29 29
176 -12 211 -60 21 -28 35 -130 36 -260 l1 -67 -127 5 c-71 3 -163 12 -207 19
-57 11 -84 11 -98 4 -23 -12 -223 -49 -211 -39 18 15 121 51 161 57 23 3 42
10 42 14 0 13 -129 11 -211 -3 -89 -14 -98 -7 -81 60 15 56 37 80 89 99 54 20
152 42 191 43 17 0 32 5 32 11 0 8 -28 10 -95 7 -52 -3 -92 -1 -89 3 3 5 13 9
23 9 27 0 33 11 13 26 -15 12 -15 13 -1 14 20 0 63 46 55 58 -8 13 47 32 90
32 19 0 34 5 34 11 0 11 65 4 108 -12z m-7158 -8 c0 -13 -27 -21 -45 -15 -8 4
-12 10 -9 15 7 12 54 12 54 0z m-739 -31 c15 -9 19 -22 19 -65 0 -67 -15 -72
-25 -9 -8 57 -25 54 -46 -9 -19 -56 -23 -61 -37 -45 -10 13 -16 60 -13 111 1
25 4 27 42 27 22 0 49 -5 60 -10z m214 -80 c0 -76 -2 -85 -19 -88 -29 -6 -46
25 -46 82 0 79 8 98 39 94 26 -3 26 -4 26 -88z m-512 48 c4 -13 -8 -127 -15
-134 -2 -2 -34 -10 -71 -18 l-67 -14 0 57 c0 61 17 96 54 111 32 13 93 12 99
-2z m9240 5 c-7 -2 -19 -2 -25 0 -7 3 -2 5 12 5 14 0 19 -2 13 -5z m-75 -27
c-31 -23 -20 -27 60 -24 73 3 77 2 80 -19 4 -24 -13 -32 -20 -11 -4 10 -20 10
-77 0 -40 -7 -77 -10 -82 -7 -24 16 8 75 40 75 14 -1 14 -2 -1 -14z m620 -5
c3 -8 -1 -12 -9 -9 -7 2 -15 10 -17 17 -3 8 1 12 9 9 7 -2 15 -10 17 -17z
m-8691 -23 c-3 -7 -5 -2 -5 12 0 14 2 19 5 13 2 -7 2 -19 0 -25z m8575 10 c-5
-5 -22 -8 -38 -6 l-29 4 25 11 c28 12 57 6 42 -9z m-8626 -36 c6 -13 8 -37 5
-55 -6 -26 -12 -33 -36 -35 -33 -4 -105 14 -105 27 0 16 50 31 70 21 10 -5 29
-10 41 -10 21 0 22 2 8 15 -8 9 -33 18 -55 21 -69 9 -87 15 -78 24 14 13 45
18 94 17 36 -2 47 -7 56 -25z m8489 18 c-3 -6 -19 -17 -36 -25 -25 -14 -29
-14 -29 -1 0 8 8 20 18 25 22 13 55 14 47 1z m-1755 -21 c0 -15 4 -19 15 -15
8 3 22 9 30 12 28 11 15 -15 -15 -31 -39 -20 -50 -19 -50 5 0 11 -7 23 -15 26
-24 9 -17 24 10 24 19 0 25 -5 25 -21z m-6685 -167 c-4 -52 -11 -80 -17 -76
-11 7 -2 190 11 209 10 17 13 -45 6 -133z m8215 129 c0 -5 -9 -13 -21 -16 -27
-9 -91 3 -84 16 8 12 105 12 105 0z m-163 -27 c-3 -3 -12 -4 -19 -1 -8 3 -5 6
6 6 11 1 17 -2 13 -5z m-9968 -40 c3 -16 1 -17 -13 -5 -19 16 -21 34 -3 29 6
-3 14 -13 16 -24z m10130 0 c15 -15 12 -16 -34 -9 -58 8 -68 13 -59 27 9 14
74 2 93 -18z m81 -4 c0 -46 33 -57 108 -36 62 17 183 22 167 7 -6 -5 -41 -14
-80 -20 -105 -18 -134 -29 -150 -61 -27 -52 -13 -122 18 -91 17 17 26 13 20
-10 -4 -14 0 -27 11 -35 17 -12 16 -13 -3 -23 -30 -17 -46 -14 -31 4 10 12 10
15 -1 15 -22 0 -35 -12 -53 -48 -18 -36 -15 -52 6 -35 17 13 68 25 68 16 0 -4
-14 -22 -32 -40 -18 -18 -27 -33 -21 -33 7 0 14 4 17 9 14 22 256 23 256 0 0
-4 -21 -10 -47 -14 -82 -10 -207 -45 -234 -65 -15 -10 -29 -16 -33 -13 -3 4
-6 100 -6 214 0 120 -4 219 -10 235 -13 32 -7 54 15 54 10 0 15 -10 15 -30z
m-8372 -16 c15 -10 22 -24 20 -37 -2 -18 -12 -23 -47 -28 -29 -4 -51 -14 -63
-29 -14 -17 -22 -20 -30 -12 -21 21 7 60 52 73 44 13 44 18 -3 36 l-32 11 40
1 c22 1 51 -6 63 -15z m8142 -9 c-15 -16 -27 -22 -33 -16 -17 17 1 41 29 41
l27 0 -23 -25z m-4140 -26 c0 -5 -4 -9 -10 -9 -5 0 -10 7 -10 16 0 8 5 12 10
9 6 -3 10 -10 10 -16z m75 11 c3 -5 -1 -10 -9 -10 -9 0 -16 5 -16 10 0 6 4 10
9 10 6 0 13 -4 16 -10z m4214 -7 c22 -6 23 -9 19 -79 -4 -80 -17 -106 -43 -84
-22 18 -19 50 5 50 16 0 20 7 20 34 0 46 -19 59 -80 54 -57 -3 -66 7 -17 21
40 11 65 13 96 4z m-4124 -22 c-11 -10 -234 -71 -256 -70 -21 1 54 27 156 54
102 27 113 29 100 16z m4554 0 c30 -19 3 -39 -61 -46 -35 -4 -102 -18 -150
-30 -83 -22 -109 -20 -92 6 27 44 259 98 303 70z m-8708 -46 c0 -5 -7 -12 -16
-13 -23 -5 -47 6 -40 19 8 13 56 8 56 -6z m4229 -2 c-25 -8 -85 -23 -135 -33
-49 -11 -101 -28 -115 -38 -14 -10 -41 -24 -61 -31 -37 -12 -79 -45 -79 -61 0
-14 9 -12 39 9 15 11 40 23 57 27 16 4 38 13 49 20 11 7 59 22 108 32 48 11
93 24 100 30 19 16 123 26 131 13 4 -7 0 -11 -11 -11 -11 0 -28 -7 -39 -15
-18 -14 -17 -14 16 -15 54 0 23 -15 -73 -35 -73 -15 -92 -16 -112 -5 -13 7
-32 9 -42 5 -17 -6 -17 -8 -1 -18 14 -10 4 -18 -71 -54 -48 -23 -99 -45 -114
-48 -28 -7 -54 -32 -44 -42 4 -3 42 10 84 29 77 35 225 78 270 78 66 0 -9 -38
-165 -82 -43 -12 -93 -34 -112 -49 -46 -35 -76 -50 -84 -42 -3 3 -6 68 -6 144
0 150 -1 149 63 149 18 0 64 8 102 16 78 18 226 42 265 42 17 0 11 -4 -20 -15z
m3915 -23 c-10 -11 -15 -26 -11 -36 6 -15 8 -15 26 1 28 25 34 14 20 -32 -16
-48 -49 -95 -61 -88 -5 4 -9 33 -9 66 0 58 12 97 34 111 19 12 20 -1 1 -22z
m-10005 -5 c6 -8 10 -21 8 -29 -2 -11 -8 -7 -20 14 -18 31 -10 41 12 15z
m10539 -9 c-5 -5 -183 -36 -202 -36 -6 0 -3 6 8 12 24 14 207 37 194 24z m131
-12 c0 -8 -4 -12 -10 -9 -5 3 -10 10 -10 16 0 5 5 9 10 9 6 0 10 -7 10 -16z
m-8755 -14 c7 -12 -54 -12 -100 0 -24 6 -18 8 32 9 34 0 65 -3 68 -9z m7159
-7 c3 -6 2 -37 -1 -68 l-6 -56 -96 3 -96 3 -8 50 c-12 71 5 83 118 81 54 0 86
-5 89 -13z m-7188 -28 c53 -22 32 -35 -56 -35 -81 0 -110 6 -110 21 0 28 110
38 166 14z m7372 -8 c13 -10 11 -13 -13 -17 -24 -4 -32 -14 -50 -58 -11 -30
-24 -55 -30 -55 -17 -3 -17 79 -1 118 15 35 18 37 48 31 17 -3 38 -12 46 -19z
m-512 -6 c-3 -5 1 -15 10 -22 16 -13 44 -62 44 -77 0 -13 -47 -24 -70 -17 -11
3 -21 20 -24 40 -10 49 -42 48 -62 -2 -12 -28 -18 -33 -25 -22 -17 27 -10 77
13 93 24 17 123 23 114 7z m1661 -7 c-3 -3 -12 -4 -19 -1 -8 3 -5 6 6 6 11 1
17 -2 13 -5z m-255 -78 c13 -24 -8 -39 -34 -25 -12 7 -18 21 -18 46 0 36 0 36
21 17 11 -10 25 -27 31 -38z m-8278 28 c20 -20 28 -52 24 -95 -3 -34 -3 -34
-64 -39 -34 -3 -68 -11 -78 -19 -14 -12 -19 -11 -36 4 -11 10 -20 26 -20 35 0
33 25 42 98 35 45 -5 72 -4 76 3 9 15 -30 25 -97 24 -66 -1 -70 10 -17 46 38
26 92 29 114 6z m4259 -1 c-7 -2 -19 -2 -25 0 -7 3 -2 5 12 5 14 0 19 -2 13
-5z m4297 -3 c0 -5 -7 -10 -15 -10 -8 0 -15 5 -15 10 0 6 7 10 15 10 8 0 15
-4 15 -10z m-530 -12 c0 -17 -18 -44 -24 -37 -8 7 5 49 15 49 5 0 9 -6 9 -12z
m-173 -40 c-3 -7 -5 -2 -5 12 0 14 2 19 5 13 2 -7 2 -19 0 -25z m313 12 c11
-7 3 -10 -28 -10 -26 0 -41 4 -37 10 8 13 45 13 65 0z m-1195 -55 c-61 -31
-71 -33 -84 -20 -20 20 -11 27 57 41 94 20 101 16 27 -21z m195 25 c-41 -29
-47 -29 -65 -10 -18 20 -17 20 31 20 36 0 45 -3 34 -10z m865 -40 c-3 -5 -30
-10 -58 -10 -70 0 -99 -9 -95 -29 2 -9 18 -18 40 -22 20 -3 43 -10 50 -16 7
-6 27 -15 43 -21 23 -8 25 -11 9 -11 -11 -1 -29 -8 -40 -17 -18 -14 -16 -15
25 -10 31 3 40 1 33 -6 -6 -6 -45 -14 -87 -17 -62 -5 -78 -10 -91 -29 -27 -39
-37 -16 -30 74 7 96 12 111 34 117 36 10 173 7 167 -3z m211 2 c18 -12 25 -42
10 -42 -8 0 -16 5 -18 10 -2 6 -33 13 -71 17 -37 3 -67 10 -67 14 0 11 131 12
146 1z m-4146 -17 c0 -18 -8 -18 -40 0 l-25 14 33 1 c22 0 32 -5 32 -15z
m2986 0 c-11 -8 -28 -15 -38 -15 -10 0 -21 0 -25 -1 -4 0 -9 4 -11 10 -3 9 25
16 73 19 20 1 20 1 1 -13z m218 6 c3 -5 3 -59 -1 -120 l-6 -111 -59 0 -58 0 0
83 c0 46 6 93 13 107 16 33 98 63 111 41z m-8206 -27 c4 -26 -14 -74 -28 -74
-11 0 -14 83 -3 94 11 11 28 1 31 -20z m83 2 c15 -33 4 -78 -19 -74 -11 2 -18
15 -20 37 -6 60 18 83 39 37z m4834 3 c-4 -5 -18 -9 -33 -9 l-27 1 25 13 c25
15 45 12 35 -5z m2125 -27 c-20 -7 -40 7 -40 29 l0 22 26 -24 c14 -13 20 -25
14 -27z m1316 38 l44 0 0 -110 0 -110 -75 0 -75 0 0 116 0 117 31 -7 c17 -3
51 -6 75 -6z m1276 -8 c17 -17 -1 -32 -40 -32 -20 0 -54 -4 -74 -9 -29 -7 -38
-6 -38 4 0 7 -7 16 -16 19 -23 9 -12 18 33 27 47 10 121 5 135 -9z m-9774 -47
c-3 -30 -7 -58 -11 -61 -3 -3 -21 -9 -41 -14 -44 -10 -57 3 -63 65 -5 42 -4
44 23 50 16 4 34 8 39 10 6 2 21 4 34 4 22 1 23 -1 19 -54z m411 29 c40 -8 41
-34 0 -68 -33 -28 -58 -33 -77 -14 -17 17 -15 32 9 62 23 29 23 29 68 20z
m7325 -4 c35 -13 36 -50 2 -50 -33 0 -42 -16 -50 -90 -3 -35 -10 -68 -15 -73
-14 -14 -72 -11 -83 4 -10 14 -4 161 7 191 10 24 94 36 139 18z m146 -10 c6
-11 10 -60 8 -113 -3 -91 -3 -92 -29 -95 -35 -4 -48 15 -60 90 -12 75 -5 125
19 131 36 10 52 6 62 -13z m-6829 0 c10 -6 19 -20 19 -30 0 -19 -5 -20 -57
-14 -32 4 -69 11 -83 16 -24 9 -24 10 -6 24 23 16 99 19 127 4z m3899 3 c0 -3
-7 -15 -17 -25 -28 -31 -8 -31 65 1 39 17 80 31 92 31 38 0 16 -22 -40 -40
-30 -10 -82 -30 -114 -44 -32 -15 -65 -25 -72 -22 -15 6 -18 44 -6 63 15 24
92 55 92 36z m3010 -14 c0 -5 -4 -9 -10 -9 -5 0 -10 7 -10 16 0 8 5 12 10 9 6
-3 10 -10 10 -16z m170 -9 c21 -38 4 -58 -59 -71 -74 -14 -93 -25 -68 -40 9
-5 17 -17 17 -24 0 -18 1 -18 36 -4 34 12 74 4 74 -15 0 -17 -25 -24 -118 -32
l-72 -7 0 71 0 70 59 -5 c55 -5 60 -4 71 18 12 24 40 59 46 59 2 0 8 -9 14
-20z m1453 5 c-1 -5 -28 -17 -60 -25 -32 -9 -78 -24 -102 -33 -24 -10 -46 -15
-49 -12 -13 12 47 57 94 70 55 15 120 15 117 0z m-10456 -17 c-3 -8 -6 -5 -6
6 -1 11 2 17 5 13 3 -3 4 -12 1 -19z m8410 -40 c-2 -13 -4 -3 -4 22 0 25 2 35
4 23 2 -13 2 -33 0 -45z m1771 50 c-3 -7 -18 -14 -34 -16 -71 -7 -69 -23 4
-32 42 -4 47 -8 47 -30 0 -31 -38 -40 -66 -14 -18 16 -20 16 -37 1 -10 -10
-29 -17 -41 -17 -20 0 -21 1 -7 16 23 22 20 40 -10 63 -28 22 -24 26 26 34 59
10 122 7 118 -5z m-8802 -134 c-9 -48 -20 -92 -26 -98 -11 -11 -129 -26 -142
-19 -5 2 -8 36 -8 74 0 55 3 71 16 76 23 9 40 -18 49 -72 3 -25 10 -45 14 -45
9 0 21 59 21 107 0 46 8 61 49 89 l36 24 3 -24 c2 -13 -4 -63 -12 -112z m8321
69 c-2 -16 -4 -5 -4 22 0 28 2 40 4 28 2 -13 2 -35 0 -50z m-8015 -60 c2 -60
2 -110 0 -113 -2 -2 -66 -6 -144 -8 -133 -4 -140 -3 -135 14 3 11 11 57 18
103 11 79 13 84 43 97 18 8 68 13 123 14 l91 0 4 -107z m6433 40 c-14 -133
-45 -155 -100 -68 -20 31 -42 54 -48 52 -7 -2 -13 -28 -15 -60 l-3 -57 -45 0
c-75 0 -84 9 -84 93 0 40 4 77 8 84 7 12 64 17 215 21 l79 2 -7 -67z m-6192
26 c18 -16 22 -34 25 -94 5 -82 -3 -93 -53 -81 -33 8 -32 22 2 31 l28 7 -23
12 c-18 10 -20 14 -10 25 11 11 3 12 -45 6 -49 -5 -58 -4 -64 11 -15 39 31 66
73 43 13 -7 27 -10 30 -6 12 12 -8 27 -49 38 -77 21 -73 19 -57 30 24 16 118
2 143 -22z m-1460 12 c23 -6 60 -13 81 -16 l39 -6 -7 -77 c-3 -42 -10 -80 -15
-85 -9 -9 -182 -27 -191 -20 -2 2 -6 46 -8 97 l-4 94 28 10 c16 6 30 11 32 11
2 1 22 -3 45 -8z m7314 -48 c-3 -10 -5 -2 -5 17 0 19 2 27 5 18 2 -10 2 -26 0
-35z m867 31 c4 -9 4 -19 2 -21 -8 -8 -26 8 -26 23 0 19 16 18 24 -2z m-7534
-122 l0 -75 -90 5 c-50 3 -97 11 -105 18 -21 18 -19 76 4 99 10 10 41 22 67
26 27 3 60 13 74 20 37 21 50 -3 50 -93z m7867 82 c-3 -3 -12 -4 -19 -1 -8 3
-5 6 6 6 11 1 17 -2 13 -5z m-8113 -55 c12 -34 1 -76 -22 -83 -9 -3 -30 -2
-47 2 -27 7 -30 13 -33 51 -4 56 8 69 55 62 29 -5 40 -12 47 -32z m7743 -6
c-3 -10 -5 -2 -5 17 0 19 2 27 5 18 2 -10 2 -26 0 -35z m1350 -20 c7 -21 -31
-31 -187 -47 -165 -17 -215 -27 -215 -42 0 -5 28 -13 63 -17 50 -7 61 -12 52
-22 -8 -9 -6 -14 5 -19 21 -8 19 -33 -4 -46 -15 -7 -23 -6 -34 5 -13 12 -17
12 -33 0 -11 -8 -38 -15 -61 -15 -24 0 -43 -4 -43 -10 0 -5 52 -11 123 -12
100 -3 122 -6 122 -18 0 -11 -13 -16 -43 -18 -28 -2 -42 -7 -39 -15 2 -8 45
-13 138 -15 146 -3 184 2 176 22 -3 7 -1 19 3 26 7 11 14 12 35 2 14 -7 23
-17 20 -22 -4 -6 -10 -8 -15 -5 -5 3 -11 1 -14 -4 -7 -12 30 -25 44 -16 5 3
10 15 10 25 0 10 8 20 18 22 11 2 17 13 17 33 0 27 3 30 40 35 l40 5 -47 13
c-28 7 -48 18 -48 26 0 22 37 62 70 76 37 15 34 34 -6 38 -161 14 -184 32 -40
32 l93 0 18 -110 c13 -83 15 -116 7 -133 -6 -12 -14 -68 -17 -123 l-7 -101
-69 -7 c-95 -9 -239 3 -239 20 0 15 15 20 105 34 124 18 136 21 129 31 -3 6
-12 8 -20 5 -17 -7 -44 3 -44 15 0 5 22 9 48 9 60 0 72 12 71 70 l-1 45 -15
-37 -15 -36 -82 -6 c-44 -3 -147 -10 -228 -16 -146 -10 -197 -20 -199 -40 -6
-34 -4 -35 81 -35 86 -1 135 -16 127 -38 -2 -7 -45 -16 -108 -22 -57 -6 -110
-14 -116 -18 -32 -20 0 -57 48 -57 12 0 30 -7 40 -16 16 -14 27 -15 82 -5 91
16 154 14 161 -4 8 -22 21 -18 34 10 9 19 19 25 41 25 22 0 29 4 25 14 -3 9 5
15 27 20 60 12 98 7 109 -13 13 -25 13 -148 0 -156 -5 -3 -17 20 -26 53 l-17
60 -31 -18 c-20 -11 -73 -22 -150 -29 -73 -7 -145 -21 -189 -36 -41 -15 -93
-25 -124 -25 -29 0 -53 -4 -53 -10 0 -6 94 -10 263 -10 146 0 269 -4 277 -10
46 -29 -78 -50 -292 -50 -86 0 -163 -3 -172 -6 -41 -16 -3 -20 153 -16 179 5
221 0 221 -23 0 -19 -18 -23 -158 -31 -67 -3 -125 -11 -129 -17 -4 -7 38 -8
130 -3 77 3 137 3 137 -2 0 -5 -48 -12 -107 -15 -134 -9 -576 -9 -625 -1 -34
6 -38 10 -38 38 0 17 -5 38 -10 46 -7 11 -10 0 -10 -38 l0 -54 -387 6 c-214 3
-404 6 -423 7 -19 0 -110 -3 -202 -7 -141 -5 -175 -4 -217 10 -65 21 -155 21
-191 0 -60 -36 -70 -8 -70 206 0 164 -2 160 68 160 l36 0 -22 22 c-20 20 -25
21 -53 11 l-32 -12 5 180 c3 99 7 181 9 183 2 2 50 6 107 10 l102 6 0 -59 c0
-98 40 -106 54 -9 4 25 13 51 20 57 16 13 318 35 365 26 22 -4 38 -2 50 9 30
27 67 30 90 7 12 -12 21 -29 21 -40 0 -24 25 -45 45 -37 9 3 15 18 15 35 0 27
3 29 48 34 26 2 88 10 137 16 99 13 384 29 391 22 2 -2 4 -37 4 -77 0 -40 5
-76 10 -79 14 -8 32 43 24 67 -3 11 -3 30 0 43 9 36 50 42 316 50 136 3 256
12 284 19 52 14 107 8 113 -11z m-2157 -23 c0 -10 -4 -22 -10 -25 -6 -4 -10 7
-10 25 0 18 4 29 10 25 6 -3 10 -15 10 -25z m-5974 6 c18 -14 18 -15 2 -21
-24 -9 -48 1 -48 20 0 19 20 19 46 1z m4140 -25 c-8 -12 -46 -21 -46 -11 0 9
18 18 38 19 7 1 11 -3 8 -8z m4537 -28 c-7 -2 -19 -2 -25 0 -7 3 -2 5 12 5 14
0 19 -2 13 -5z m80 0 c-7 -2 -21 -2 -30 0 -10 3 -4 5 12 5 17 0 24 -2 18 -5z
m-9100 -30 c-13 -2 -33 -2 -45 0 -13 2 -3 4 22 4 25 0 35 -2 23 -4z m8284 1
c-3 -3 -12 -4 -19 -1 -8 3 -5 6 6 6 11 1 17 -2 13 -5z m673 -18 c0 -3 -24 -12
-52 -21 -64 -21 -78 -32 -58 -46 11 -7 4 -9 -25 -7 -35 3 -40 6 -43 31 -3 21
2 29 20 36 23 10 158 15 158 7z m-392 -18 c-6 -18 -62 -25 -211 -29 -92 -3
-127 -1 -127 8 0 7 31 13 88 18 48 3 98 7 112 9 72 9 141 5 138 -6z m542 3 c0
-11 -31 -24 -39 -16 -3 3 1 10 9 15 19 12 30 12 30 1z m-4432 -38 c-10 -2 -28
-2 -40 0 -13 2 -5 4 17 4 22 1 32 -1 23 -4z m3767 -13 c4 -6 -5 -10 -20 -10
-15 0 -24 4 -20 10 3 6 12 10 20 10 8 0 17 -4 20 -10z m100 -10 c0 -9 -7 -14
-20 -12 -26 5 -29 8 -20 22 10 16 40 8 40 -10z m-122 -57 c-7 -2 -19 -2 -25 0
-7 3 -2 5 12 5 14 0 19 -2 13 -5z m-4023 -35 c-1 -18 -7 -49 -14 -69 -8 -24
-11 -65 -8 -118 l5 -81 -43 0 -43 0 6 83 c4 45 7 103 7 130 0 54 24 87 65 87
22 0 25 -4 25 -32z m4640 3 c0 -11 -59 -26 -67 -18 -3 3 10 10 28 16 19 5 35
10 37 10 1 1 2 -3 2 -8z m-4442 -53 c-4 -41 -28 -50 -28 -10 0 16 3 32 7 35
15 16 24 5 21 -25z m-2244 -45 c-7 -78 -20 -93 -75 -93 -49 0 -73 23 -65 63 3
16 6 38 6 48 0 33 28 49 86 49 l55 0 -7 -67z m140 45 c3 -13 6 -51 6 -85 0
-60 -1 -63 -24 -63 -14 0 -36 4 -51 10 -25 10 -26 12 -20 72 9 86 10 88 49 88
26 0 35 -5 40 -22z m2011 -8 c-6 -9 -9 -9 -16 1 -10 17 0 34 13 21 6 -6 7 -16
3 -22z m-285 -40 c0 -5 -11 -17 -24 -26 -20 -12 -26 -26 -28 -62 -2 -37 -7
-48 -22 -50 -37 -7 -41 29 -14 116 5 19 19 37 32 42 22 8 56 -4 56 -20z m427
-7 c-3 -10 -5 -4 -5 12 0 17 2 24 5 18 2 -7 2 -21 0 -30z m-1834 -3 l47 -21 0
-92 c0 -97 -8 -124 -34 -114 -17 7 -21 20 -33 116 -11 87 -31 92 -35 9 l-3
-63 -32 32 c-30 28 -33 37 -33 91 0 32 3 62 8 66 10 11 60 1 115 -24z m-865
-42 c2 -41 -1 -58 -13 -68 -19 -16 -32 -5 -37 33 -5 45 -23 32 -28 -21 -6 -52
-23 -82 -47 -82 -7 0 -16 -7 -19 -15 -4 -8 -15 -15 -25 -15 -15 0 -19 7 -19
39 0 85 12 130 39 148 26 17 117 43 136 39 6 -2 11 -27 13 -58z m2303 -78 c-9
-23 -10 -21 -10 16 -1 23 2 57 7 75 7 32 7 32 10 -16 2 -28 -2 -62 -7 -75z
m-351 58 c0 -41 -14 -78 -30 -78 -5 0 -17 14 -25 30 -20 40 -31 32 -39 -28 -3
-28 -14 -56 -24 -65 -21 -20 -77 -33 -85 -21 -5 8 6 92 18 140 6 28 46 54 98
63 71 12 87 5 87 -41z m679 27 c42 -21 52 -58 49 -168 -4 -139 -32 -128 -63
24 -23 115 -25 120 -35 114 -6 -3 -10 -26 -10 -49 0 -53 -22 -78 -47 -53 -17
16 -30 105 -20 132 8 20 88 20 126 0z m4436 -12 c-27 -8 -81 -23 -119 -34 -47
-14 -78 -30 -97 -50 -15 -16 -30 -29 -33 -29 -8 0 -8 44 0 65 15 37 110 61
249 63 l50 0 -50 -15z m-5997 -71 c3 -9 -2 -13 -14 -10 -9 1 -19 9 -22 16 -3
9 2 13 14 10 9 -1 19 -9 22 -16z m5842 -22 c-9 -6 -19 -5 -25 1 -6 6 -5 13 5
19 9 6 19 5 25 -1 6 -6 5 -13 -5 -19z m-6558 -62 l3 -73 35 0 c47 0 60 -10 61
-48 l1 -32 10 30 c6 17 17 37 25 46 12 14 11 18 -2 29 -14 12 -22 100 -10 112
3 3 47 -3 97 -14 116 -23 205 -70 233 -121 24 -43 32 -46 41 -12 8 30 15 31
40 4 14 -16 20 -40 23 -101 l3 -79 -215 3 c-145 2 -220 7 -227 14 -9 9 -19 8
-39 -4 -35 -20 -74 -10 -89 23 -15 33 -42 32 -74 -5 l-26 -30 -116 0 c-81 0
-128 5 -153 15 -49 21 -147 20 -168 -2 -23 -22 -35 -3 -35 55 l0 44 63 -7 c70
-8 101 -25 45 -25 -42 0 -68 -8 -68 -21 0 -27 152 7 180 41 8 10 33 24 55 31
l40 14 -49 3 c-45 3 -47 4 -32 21 15 17 15 20 -5 45 -11 15 -19 33 -16 40 11
28 197 73 309 75 l57 1 3 -72z m44 -44 c-3 -8 -10 -14 -17 -14 -11 0 -4 94 10
115 7 12 14 -82 7 -101z m744 21 l0 -65 -90 0 -90 0 0 65 0 65 90 0 90 0 0
-65z m288 53 c16 -16 15 -103 -1 -117 -8 -6 -36 -12 -63 -13 l-49 -3 3 45 c4
46 17 80 36 92 17 12 61 9 74 -4z m236 -7 c9 -10 19 -35 23 -54 5 -33 3 -37
-21 -43 -44 -11 -56 0 -56 55 0 44 6 57 31 60 3 1 14 -7 23 -18z m471 9 c3 -5
-3 -10 -15 -10 -12 0 -18 5 -15 10 3 6 10 10 15 10 5 0 12 -4 15 -10z m-132
-21 c-15 -15 -93 -24 -93 -11 0 10 27 17 80 21 17 1 21 -2 13 -10z m479 -10
c24 -11 50 -24 58 -28 10 -5 17 -29 21 -68 3 -33 9 -65 13 -71 14 -22 26 -1
26 44 0 52 8 51 51 -8 33 -46 38 -78 12 -78 -16 -1 -16 -2 1 -15 11 -8 16 -18
12 -22 -4 -5 -67 -9 -139 -11 -128 -3 -133 -3 -167 22 -19 14 -47 34 -62 43
-17 11 -28 27 -28 41 0 25 -29 30 -74 12 -31 -11 -35 -35 -6 -27 14 4 25 -2
36 -19 9 -13 23 -24 30 -24 21 0 17 -18 -7 -30 -25 -14 -261 -26 -312 -16 -20
4 -37 12 -37 18 0 6 12 8 33 4 17 -3 39 -1 47 5 27 19 -170 5 -208 -15 -18
-10 -43 -16 -55 -14 -18 2 -23 11 -27 53 -9 86 -1 98 51 73 23 -11 25 -15 15
-40 -16 -43 1 -51 59 -29 28 10 74 22 102 26 63 8 75 20 30 29 -27 6 -29 8
-14 17 9 5 17 19 17 29 0 11 5 20 11 20 8 0 7 5 -1 15 -24 29 5 39 113 43 66
2 97 0 88 -6 -19 -13 -5 -32 24 -32 18 0 26 -7 31 -25 6 -23 24 -36 24 -17 0
4 11 19 25 34 l24 27 58 -19 c79 -26 143 -39 143 -30 0 4 -28 19 -62 34 -92
39 -111 50 -116 64 -7 21 111 15 160 -9z m278 13 c0 -13 -12 -22 -22 -16 -10
6 -1 24 13 24 5 0 9 -4 9 -8z m3958 -54 c4 -22 -19 -23 -104 -6 -50 10 -55 13
-34 19 14 4 50 7 80 6 43 -2 55 -6 58 -19z m-6793 -78 c3 -5 -3 -10 -14 -10
-12 0 -21 5 -21 10 0 6 6 10 14 10 8 0 18 -4 21 -10z m7135 0 c0 -10 -53 -25
-117 -33 -44 -5 -57 5 -25 18 9 4 42 11 72 15 30 4 58 8 63 9 4 0 7 -3 7 -9z
m-5457 -6 c56 -10 44 -24 -20 -24 -92 -1 -129 -14 -183 -64 -56 -53 -76 -57
-91 -19 l-10 27 -22 -28 c-25 -31 -17 -31 -259 -10 l-68 6 0 44 c0 24 -1 47
-2 52 -2 4 116 9 262 12 146 3 285 6 310 8 25 1 62 -1 83 -4z m243 -39 c-11
-8 -25 -15 -30 -15 -6 0 -2 7 8 15 11 8 25 15 30 15 6 0 2 -7 -8 -15z m4887
-39 c13 -38 2 -56 -32 -56 -33 0 -51 18 -31 30 9 5 9 9 1 14 -6 4 -11 16 -11
26 0 40 59 29 73 -14z m963 36 c18 -12 24 -41 14 -68 -9 -24 -13 -25 -82 -22
l-73 3 -3 39 c-2 24 2 42 10 47 16 11 119 11 134 1z m-467 -18 c1 -1 1 -8 -1
-14 -2 -8 -13 -4 -28 10 l-25 21 25 -7 c14 -3 27 -8 29 -10z m-5573 -9 c26
-20 3 -35 -41 -25 -47 11 -61 20 -44 31 22 13 63 11 85 -6z m-2793 -12 c-7 -2
-19 -2 -25 0 -7 3 -2 5 12 5 14 0 19 -2 13 -5z m45 -32 c23 -14 -24 -21 -145
-21 -61 0 -114 4 -118 9 -3 5 7 12 22 14 53 8 228 7 241 -2z m5595 -18 c-7 -2
-19 -2 -25 0 -7 3 -2 5 12 5 14 0 19 -2 13 -5z"/>
<path d="M2307 4873 c-10 -10 -39 -22 -64 -28 -26 -5 -48 -16 -51 -22 -3 -10
20 -13 92 -13 53 0 96 4 96 8 0 5 -9 17 -20 27 -11 10 -20 24 -20 32 0 18 -12
16 -33 -4z"/>
<path d="M2555 4783 c-65 -6 -85 -12 -85 -30 0 -13 8 -15 48 -9 26 4 69 10 96
13 l48 6 -3 -46 c-5 -53 11 -58 23 -9 7 26 13 32 36 32 15 -1 38 -7 52 -15 29
-17 50 -19 50 -5 0 23 -137 71 -195 68 -16 -1 -48 -3 -70 -5z"/>
<path d="M2221 4649 l-1 -56 57 5 c49 4 55 3 50 -12 -5 -11 -1 -16 14 -16 11
0 30 -5 41 -11 17 -9 24 -7 42 14 11 14 30 27 41 29 11 2 19 8 18 13 -4 18
-44 17 -64 -1 -15 -14 -22 -15 -28 -6 -4 7 -15 10 -24 6 -12 -4 -17 -1 -17 11
0 15 -7 17 -51 13 -41 -4 -52 -2 -56 11 -16 54 -22 54 -22 0z"/>
<path d="M2844 4605 c-26 -27 -25 -45 5 -45 24 0 41 20 41 47 0 30 -15 29 -46
-2z"/>
<path d="M2585 4593 c-73 -5 -95 -11 -95 -29 0 -12 6 -15 23 -10 12 3 48 11
80 18 31 7 57 16 57 20 0 4 -3 7 -7 6 -5 -1 -30 -3 -58 -5z"/>
<path d="M1945 4553 c-76 -24 -145 -63 -145 -83 0 -5 14 -17 31 -25 25 -13 37
-14 65 -5 21 7 34 18 34 29 0 15 7 17 54 13 35 -3 56 0 61 8 5 8 -4 11 -36 9
-49 -4 -56 9 -17 28 31 15 52 39 41 46 -4 3 -44 -6 -88 -20z"/>
<path d="M2787 4512 c-5 -20 -44 -32 -106 -32 -36 0 -82 -22 -71 -34 3 -3 66
-1 140 4 74 5 152 9 173 10 20 0 37 5 37 10 0 6 -25 10 -55 10 -47 0 -60 4
-79 25 -28 30 -32 31 -39 7z"/>
<path d="M2193 4480 c-41 -17 -27 -33 20 -25 23 5 87 9 142 11 119 2 128 4 95
14 -34 11 -230 11 -257 0z"/>
<path d="M1801 4417 c-24 -12 -30 -29 -13 -35 14 -4 57 34 46 41 -6 3 -21 0
-33 -6z"/>
<path d="M1960 4386 c-25 -7 -63 -22 -86 -34 -41 -21 -75 -52 -56 -52 5 0 15
6 21 14 13 16 104 42 179 52 32 4 51 11 49 18 -5 16 -55 17 -107 2z"/>
<path d="M1909 4297 c-70 -34 -99 -54 -99 -68 0 -14 17 -10 36 8 13 13 19 14
22 5 6 -19 43 -14 49 7 3 11 26 28 54 40 27 12 49 26 49 31 0 18 -44 9 -111
-23z"/>
<path d="M10327 4083 c-15 -15 -6 -33 18 -33 20 0 30 -10 51 -52 15 -29 29
-47 31 -41 8 21 83 35 150 28 72 -8 154 2 132 16 -24 14 -111 20 -188 11 -58
-7 -76 -6 -87 6 -16 16 -10 32 12 32 26 0 9 25 -22 31 -41 9 -89 10 -97 2z"/>
<path d="M10698 3923 c-23 -23 -38 -27 -112 -33 -48 -4 -89 -10 -93 -14 -9 -9
16 -26 40 -26 9 0 23 -11 29 -25 15 -33 21 -32 35 6 l12 31 73 -6 c81 -7 115
3 87 26 -9 7 -23 25 -31 40 l-14 28 -26 -27z"/>
<path d="M10665 3779 c-9 -26 6 -42 36 -37 29 4 34 21 14 42 -22 22 -42 20
-50 -5z"/>
<path d="M2327 3961 c-21 -4 -51 -18 -68 -30 -27 -20 -31 -21 -46 -6 -13 14
-28 16 -72 10 -70 -8 -91 -14 -91 -26 0 -5 26 -9 58 -9 40 0 53 -3 42 -10 -8
-5 -30 -10 -48 -10 -18 0 -49 -7 -70 -17 l-37 -16 48 -8 c26 -4 62 -3 80 2 17
5 68 9 112 9 45 0 86 5 91 10 8 8 15 6 24 -5 21 -26 1 -35 -126 -56 -65 -11
-125 -24 -133 -29 -9 -5 99 -7 254 -5 200 2 290 0 350 -11 121 -21 128 -20
120 16 -6 27 -4 30 19 30 34 0 43 18 14 29 -34 13 -252 50 -338 56 -92 7 -192
25 -204 36 -6 5 57 9 145 9 126 0 162 -3 190 -17 20 -10 64 -18 114 -20 76 -3
78 -2 50 12 -16 8 -40 14 -52 15 -11 0 -50 9 -85 20 -70 23 -275 35 -341 21z
m442 -147 c2 -2 2 -6 -1 -9 -9 -9 -58 6 -58 17 0 9 49 3 59 -8z"/>
<path d="M2130 3715 c-93 -16 -130 -30 -130 -49 0 -8 -8 -17 -18 -20 -10 -4
-35 -23 -55 -44 l-38 -38 83 4 c46 2 100 0 121 -6 38 -11 43 -7 27 18 -6 10
-4 20 6 31 14 16 14 18 -3 27 -10 5 -33 13 -51 17 -19 4 -30 11 -25 16 11 11
169 29 259 29 91 0 165 10 158 21 -8 13 -248 9 -334 -6z m-50 -99 c0 -11 -19
-15 -25 -6 -3 5 1 10 9 10 9 0 16 -2 16 -4z"/>
<path d="M2510 3715 c0 -11 11 -15 43 -15 41 0 177 -14 245 -25 24 -5 32 -2
32 9 0 10 -14 16 -42 20 -24 3 -78 10 -121 16 -112 15 -157 13 -157 -5z"/>
<path d="M2311 3648 c0 -13 4 -32 9 -43 7 -15 9 -10 9 23 1 23 -3 42 -9 42 -5
0 -10 -10 -9 -22z"/>
<path d="M2741 3573 c-5 -10 -11 -36 -12 -58 -4 -34 -1 -40 16 -40 15 0 21 10
27 45 5 25 6 51 3 58 -6 17 -23 15 -34 -5z"/>
<path d="M2508 3569 c-66 -26 -10 -43 108 -33 46 4 84 10 84 14 0 20 -152 35
-192 19z"/>
<path d="M1897 3533 c-12 -12 -7 -22 13 -28 23 -7 27 -25 6 -25 -8 0 -24 -9
-37 -20 l-24 -19 65 -1 c87 0 109 -15 34 -23 -70 -7 -97 -27 -38 -27 22 0 62
-7 89 -16 34 -12 53 -14 64 -7 11 7 38 7 80 1 104 -16 97 15 -7 33 -34 6 -62
15 -62 20 0 16 38 29 69 23 24 -5 31 -3 31 9 0 10 -19 21 -55 32 -32 9 -55 21
-55 29 0 8 -7 17 -16 20 -21 8 -149 8 -157 -1z"/>
<path d="M2390 3501 c0 -44 -19 -87 -43 -99 -17 -8 10 -11 113 -11 99 -1 143
-5 164 -16 35 -19 56 -19 56 -1 0 25 -61 41 -157 41 l-92 0 -6 40 c-9 57 -15
75 -26 75 -5 0 -9 -13 -9 -29z"/>
<path d="M2471 3279 c-67 -13 -75 -29 -15 -29 57 0 124 17 124 30 0 12 -48 11
-109 -1z"/>
<path d="M2612 3284 c-22 -10 -2 -24 34 -24 24 0 34 4 32 13 -5 13 -44 19 -66
11z"/>
<path d="M2578 3234 c-5 -4 -8 -16 -8 -27 0 -11 -16 -35 -36 -54 l-37 -34 79
7 c44 4 93 12 109 20 29 12 28 12 -32 13 l-62 1 -3 41 c-2 22 -6 37 -10 33z"/>
<path d="M2750 3210 c-30 -30 -21 -44 28 -48 32 -2 44 1 49 14 16 43 -42 69
-77 34z"/>
<path d="M7425 2800 c-4 -7 -3 -16 3 -22 14 -14 45 -2 40 15 -6 16 -34 21 -43
7z"/>
<path d="M6775 2480 c-33 -10 -71 -22 -85 -28 -24 -9 -24 -10 -5 -17 39 -13
50 -22 66 -55 l16 -32 10 28 c6 16 14 37 17 46 3 10 17 20 31 24 18 4 25 13
25 30 0 28 3 28 -75 4z"/>
<path d="M6330 2481 c-19 -5 -26 -14 -28 -39 -3 -24 -8 -32 -23 -32 -30 0
-267 -79 -275 -92 -5 -7 -2 -9 8 -5 9 3 101 29 204 57 197 55 224 64 224 80 0
16 -36 12 -50 -6 -15 -17 -61 -15 -67 2 -2 7 21 18 54 27 56 15 57 15 18 15
-22 0 -51 -3 -65 -7z"/>
<path d="M6225 2449 c-4 -6 -5 -13 -2 -16 8 -7 47 7 47 18 0 13 -37 11 -45 -2z"/>
<path d="M7200 2421 c-8 -17 -7 -24 10 -41 23 -23 38 -22 54 3 8 12 8 22 0 35
-16 25 -51 27 -64 3z"/>
<path d="M6300 2346 c-198 -56 -277 -83 -288 -98 -16 -22 -42 -24 -42 -3 0 19
-30 19 -56 0 -18 -14 -18 -14 5 -15 l24 0 -23 -25 c-13 -14 -22 -25 -19 -25
16 1 173 61 178 68 3 5 22 12 41 15 89 15 101 19 96 34 -4 9 -1 13 6 11 26 -9
20 -37 -9 -43 -15 -4 -48 -15 -73 -25 -25 -10 -61 -21 -80 -25 -19 -4 -55 -18
-80 -31 -25 -13 -50 -24 -57 -24 -20 0 -73 -51 -73 -71 0 -18 1 -18 33 0 17
10 73 27 122 36 116 23 150 37 70 30 -33 -2 -73 -7 -90 -10 l-30 -5 30 14 c66
31 186 48 285 41 87 -6 94 -5 79 9 -8 9 -35 20 -60 25 -53 10 -36 19 41 23 48
3 55 6 58 25 3 17 -4 26 -30 37 -32 14 -33 14 -6 15 35 1 59 11 52 22 -7 12
-50 10 -104 -5z"/>
<path d="M6467 2353 c-4 -3 -7 -13 -7 -21 0 -12 12 -14 68 -9 75 6 105 15 96
28 -6 10 -147 12 -157 2z"/>
<path d="M7572 2248 c-5 -7 -13 -24 -17 -38 -4 -14 -19 -37 -33 -52 -14 -15
-23 -31 -19 -34 4 -4 35 6 69 21 80 35 157 37 200 5 33 -24 69 -20 48 5 -15
18 -101 45 -144 45 -38 0 -51 9 -60 38 -8 24 -28 29 -44 10z"/>
<path d="M6800 2169 c-18 -34 -29 -39 -81 -39 -86 0 -129 -27 -129 -81 0 -22
1 -22 33 8 46 44 77 59 88 42 5 -8 9 -26 9 -42 0 -28 -1 -29 -77 -57 -18 -7
-33 -19 -33 -27 0 -12 7 -14 33 -9 23 5 167 23 205 26 1 0 2 4 2 9 0 4 -23 11
-51 14 -29 4 -53 8 -56 10 -2 2 0 22 5 43 7 35 12 40 42 44 38 5 51 33 32 66
-9 15 -11 15 -22 -7z"/>
<path d="M6166 2171 c-7 -11 49 -25 64 -16 6 3 8 11 5 16 -8 12 -62 12 -69 0z"/>
<path d="M7097 2153 c-4 -3 -7 -12 -7 -20 0 -10 10 -12 38 -8 20 2 67 7 105
11 37 3 65 10 62 15 -7 10 -188 13 -198 2z"/>
<path d="M6885 2095 c-5 -2 -22 -6 -37 -9 -38 -9 -35 -24 5 -28 31 -3 32 -5
37 -53 l5 -50 7 40 c10 52 10 105 1 104 -5 0 -12 -2 -18 -4z"/>
<path d="M6895 1920 c-7 -12 94 -12 140 0 22 6 7 8 -52 9 -45 0 -85 -3 -88 -9z"/>
<path d="M7587 1899 c-47 -11 -77 -27 -77 -40 0 -6 4 -8 8 -5 5 3 64 12 133
21 68 9 128 20 134 26 12 12 -146 10 -198 -2z"/>
<path d="M6345 1860 c-3 -5 3 -10 14 -10 12 0 21 5 21 10 0 6 -6 10 -14 10 -8
0 -18 -4 -21 -10z"/>
<path d="M6800 1860 c-19 -4 -59 -17 -88 -28 -80 -31 -102 -54 -62 -65 15 -4
20 -14 20 -41 0 -41 -11 -45 -41 -15 -21 21 -44 19 -87 -9 -36 -23 -21 -37 49
-42 55 -4 64 -8 67 -25 4 -34 -13 -46 -71 -52 -47 -5 -57 -9 -57 -24 0 -23 8
-24 48 -3 48 23 66 16 70 -30 3 -35 5 -38 30 -33 15 3 45 12 67 20 52 20 199
37 252 30 l42 -5 3 38 c3 36 5 38 51 50 27 7 52 15 55 19 11 10 -21 25 -58 26
-39 1 -33 4 23 14 48 8 47 23 -2 31 -52 8 -60 14 -67 54 -6 32 -5 33 8 16 14
-18 17 -18 71 -2 76 22 78 46 5 46 -67 0 -98 9 -98 26 0 11 -21 14 -97 13 -54
-1 -114 -5 -133 -9z m175 -61 c11 -17 -1 -21 -15 -4 -8 9 -8 15 -2 15 6 0 14
-5 17 -11z m22 -61 c-3 -8 -6 -5 -6 6 -1 11 2 17 5 13 3 -3 4 -12 1 -19z m-72
-67 c-11 -10 -35 11 -35 31 l0 23 20 -25 c10 -14 17 -26 15 -29z m3 -64 c2
-12 -3 -17 -17 -17 -12 0 -21 6 -21 13 0 31 32 34 38 4z m-118 0 c0 -17 -20
-37 -37 -37 -7 0 -13 11 -13 25 0 20 5 25 25 25 14 0 25 -6 25 -13z"/>
<path d="M7757 1843 c-4 -3 -7 -26 -7 -49 0 -24 -4 -46 -10 -49 -18 -11 -83
28 -94 57 -13 36 -22 35 -29 -1 -6 -26 -11 -29 -60 -35 -30 -4 -63 -13 -73
-20 -15 -11 1 -14 112 -21 92 -5 134 -11 146 -22 27 -24 38 -6 38 60 0 61 -10
94 -23 80z"/>
<path d="M6940 1381 c0 -14 -12 -38 -27 -54 l-28 -29 105 4 c135 6 175 23 74
32 -80 8 -94 14 -111 47 l-13 24 0 -24z"/>
<path d="M7462 1368 c-21 -21 -14 -48 15 -59 30 -11 153 -2 153 12 0 4 -20 11
-44 14 -25 4 -53 16 -62 26 -20 22 -45 24 -62 7z"/>
<path d="M6544 1236 c-41 -13 -98 -46 -79 -46 6 0 43 9 84 20 41 11 87 20 103
20 15 0 28 5 28 10 0 14 -87 11 -136 -4z"/>
<path d="M6830 1110 l-55 -18 67 -1 c67 -1 67 -1 76 -33 11 -42 28 -46 36 -7
4 21 13 33 28 37 19 5 14 8 -27 23 -62 22 -58 22 -125 -1z"/>
<path d="M7351 1079 c-42 -8 -70 -24 -60 -33 3 -3 319 18 339 23 3 1 -2 6 -10
11 -18 12 -208 11 -269 -1z"/>
<path d="M6262 958 c2 -6 10 -14 16 -16 7 -2 10 2 6 12 -7 18 -28 22 -22 4z"/>
<path d="M6533 938 c-24 -5 -43 -13 -43 -19 0 -13 40 -11 160 10 l105 19 -90
0 c-49 0 -109 -4 -132 -10z"/>
<path d="M7556 935 c-3 -9 -6 -39 -6 -66 0 -55 -4 -58 -87 -79 -42 -11 -55
-24 -31 -32 9 -3 8 -12 -6 -32 -23 -35 -17 -40 31 -27 21 6 50 11 66 11 25 0
27 -3 27 -44 0 -50 21 -79 54 -74 19 3 22 12 28 85 4 46 10 88 13 94 5 7 25 8
56 4 31 -4 49 -3 49 3 0 16 -20 26 -65 32 -35 4 -42 10 -58 45 -43 95 -58 112
-71 80z"/>
<path d="M6285 925 c-19 -15 -19 -15 10 -13 17 2 29 7 28 13 -3 16 -18 16 -38
0z"/>
<path d="M7231 880 c-65 -10 -131 -38 -131 -57 0 -18 25 -17 54 3 18 11 63 17
164 21 136 6 175 13 158 30 -11 11 -179 13 -245 3z"/>
<path d="M6930 813 c-117 -8 -170 -15 -170 -24 0 -5 14 -9 31 -9 22 0 40 -9
60 -31 16 -18 27 -35 23 -38 -3 -3 -60 -6 -127 -7 -126 -1 -190 -15 -169 -36
9 -9 30 -8 84 4 79 17 101 11 96 -25 -2 -16 -15 -23 -53 -32 -57 -13 -95 -31
-95 -45 0 -13 -2 -13 51 5 24 8 85 21 134 28 95 14 112 28 46 38 -47 6 -56 12
-48 34 8 20 36 19 60 -2 18 -17 20 -17 34 2 13 18 13 43 1 95 -2 12 12 16 80
18 64 2 82 6 82 17 0 15 -11 16 -120 8z"/>
<path d="M7440 674 c-71 -23 -100 -38 -100 -50 0 -19 9 -18 45 6 21 14 47 20
88 20 31 0 57 4 57 9 0 18 -53 27 -90 15z"/>
<path d="M8995 2250 c-14 -22 25 -42 73 -37 49 5 60 13 44 29 -17 17 -108 23
-117 8z"/>
<path d="M9215 2171 c11 -4 40 -12 65 -16 36 -6 43 -5 33 5 -6 7 -36 15 -65
17 -37 2 -47 1 -33 -6z"/>
<path d="M9110 2126 c0 -40 14 -53 36 -35 23 19 14 63 -13 67 -20 3 -23 -1
-23 -32z"/>
<path d="M8841 2080 c-100 -39 -111 -53 -40 -44 70 8 92 -11 24 -22 -27 -4
-49 -13 -55 -23 -8 -16 -3 -16 68 -6 75 10 77 11 95 48 19 42 46 48 74 18 10
-10 27 -21 38 -23 14 -2 21 -14 26 -41 8 -49 16 -56 29 -23 28 74 30 70 -72
110 -52 20 -98 36 -103 35 -6 0 -43 -13 -84 -29z"/>
<path d="M9261 2066 c-16 -19 -27 -126 -13 -126 14 0 22 25 22 71 0 44 1 45
35 23 38 -25 54 -12 23 19 -30 30 -50 34 -67 13z"/>
<path d="M6191 1849 c-13 -10 -33 -19 -45 -19 -24 0 -53 -16 -45 -24 9 -9 105
22 118 38 19 22 -2 26 -28 5z"/>
<path d="M5953 1777 c-36 -14 -58 -32 -28 -24 11 3 35 8 53 12 17 4 32 11 32
16 0 12 -17 10 -57 -4z"/>
<path d="M1600 1461 l-25 -20 67 -1 c92 0 106 22 22 36 -31 5 -45 2 -64 -15z"/>
<path d="M580 1440 c-12 -8 -12 -10 3 -16 20 -7 47 1 47 16 0 12 -30 13 -50 0z"/>
<path d="M554 1385 c-18 -15 -18 -15 10 -13 16 2 31 9 34 16 5 17 -20 15 -44
-3z"/>
<path d="M1057 1413 c-4 -3 -7 -15 -7 -25 0 -10 -6 -18 -14 -18 -7 0 -20 -7
-27 -17 -13 -15 -11 -16 26 -10 22 4 48 7 59 7 16 0 16 2 5 16 -10 13 -10 17
0 24 8 4 10 13 7 19 -8 12 -39 15 -49 4z"/>
<path d="M8444 1188 c-7 -31 -14 -44 -29 -46 -47 -7 -65 -13 -65 -21 0 -9 17
-13 124 -27 l50 -7 -22 28 c-12 15 -22 37 -22 49 0 30 -11 66 -20 66 -4 0 -11
-19 -16 -42z"/>
<path d="M9108 1188 c15 -15 85 -14 122 1 20 8 9 10 -54 10 -64 1 -77 -2 -68
-11z"/>
<path d="M9225 1141 c-37 -8 -42 -29 -15 -59 28 -30 39 -28 56 13 24 57 22 60
-41 46z"/>
<path d="M9336 1141 c-4 -7 -5 -15 -2 -18 9 -9 19 4 14 18 -4 11 -6 11 -12 0z"/>
<path d="M8054 1086 c-10 -26 1 -51 24 -54 23 -4 29 17 16 52 -8 20 -33 21
-40 2z"/>
<path d="M8233 1069 c6 -41 1 -50 -33 -66 -21 -10 -11 -12 64 -12 90 -1 101 5
43 24 -20 6 -40 24 -55 50 l-24 40 5 -36z"/>
<path d="M9190 1021 c0 -12 17 -18 74 -26 57 -9 63 9 9 24 -47 13 -83 14 -83
2z"/>
<path d="M8841 1011 c-25 -16 32 -24 107 -17 108 11 109 25 2 26 -52 0 -102
-4 -109 -9z"/>
<path d="M9521 937 c-9 -12 -10 -21 -1 -36 13 -24 23 -26 39 -7 9 10 7 19 -7
36 -16 20 -19 20 -31 7z"/>
<path d="M9001 902 c-11 -32 -11 -46 -3 -54 16 -16 24 9 20 58 l-3 39 -14 -43z"/>
<path d="M9193 931 c-88 -11 -71 -21 33 -21 107 0 153 13 87 23 -41 7 -43 7
-120 -2z"/>
<path d="M9192 878 c-14 -19 -25 -78 -14 -78 5 0 17 11 26 25 27 41 17 88 -12
53z"/>
<path d="M7960 817 c0 -54 -1 -57 -25 -57 -14 0 -25 -4 -25 -10 0 -5 8 -10 17
-10 9 0 25 -7 35 -17 17 -15 19 -15 36 0 10 10 32 17 48 18 l29 1 -35 12 c-28
10 -36 20 -45 54 -5 23 -16 47 -22 54 -10 10 -13 1 -13 -45z"/>
<path d="M8537 823 c-4 -3 -7 -13 -7 -21 0 -11 9 -13 43 -9 23 4 69 9 102 13
44 5 55 9 40 15 -25 9 -169 11 -178 2z"/>
<path d="M8434 777 c-10 -26 0 -62 19 -65 13 -3 17 3 17 26 0 35 -26 64 -36
39z"/>
<path d="M9375 760 c-20 -5 2 -8 65 -8 52 0 109 4 125 8 20 5 -2 8 -65 8 -52
0 -108 -4 -125 -8z"/>
<path d="M8598 676 c-42 -6 -80 -15 -84 -19 -4 -4 33 -7 82 -7 99 0 110 -4
115 -39 5 -31 29 -40 29 -12 0 12 7 37 14 56 l15 35 -47 -1 c-26 -1 -82 -6
-124 -13z"/>
<path d="M8805 680 c4 -6 11 -8 16 -5 14 9 11 15 -7 15 -8 0 -12 -5 -9 -10z"/>
<path d="M4127 583 c-10 -3 -16 -10 -14 -16 3 -8 32 -11 93 -9 109 3 144 10
123 23 -14 9 -169 11 -202 2z"/>
<path d="M8435 5560 c-8 -12 15 -139 26 -146 10 -6 13 14 10 61 -4 80 -18 114
-36 85z"/>
<path d="M7657 5023 c-17 -16 -3 -23 51 -23 66 0 142 -30 142 -55 0 -25 24
-12 30 16 4 17 14 25 34 27 l29 4 -6 -56 c-7 -66 5 -66 23 -1 18 65 29 71 102
56 33 -7 63 -10 66 -7 3 3 -15 15 -39 26 -54 24 -147 26 -211 4 -42 -14 -49
-14 -83 0 -38 16 -126 22 -138 9z"/>
<path d="M8050 4883 c0 -6 20 -13 45 -16 68 -7 81 -24 88 -115 6 -82 20 -132
36 -132 5 0 11 14 13 32 3 32 15 42 73 65 15 5 9 8 -25 11 -56 4 -72 17 -68
56 3 27 8 32 38 36 l35 5 -59 30 c-60 30 -176 48 -176 28z"/>
<path d="M7365 4844 c-103 -20 -125 -27 -125 -36 0 -5 7 -7 16 -4 9 3 73 11
143 17 159 13 199 28 76 27 -49 0 -99 -2 -110 -4z"/>
<path d="M7657 4813 c-10 -9 -8 -46 3 -63 7 -12 15 -11 53 8 24 12 57 23 73
23 19 1 13 4 -21 10 -27 5 -58 14 -67 19 -21 12 -32 13 -41 3z"/>
<path d="M7965 4770 c55 -20 105 -25 105 -11 0 11 -88 31 -128 30 -22 0 -17
-4 23 -19z"/>
<path d="M7265 4733 c-37 -8 -75 -25 -75 -34 0 -12 3 -12 64 6 28 8 79 19 111
24 l60 9 -70 0 c-38 0 -79 -2 -90 -5z"/>
<path d="M7715 4712 c14 -15 170 -33 197 -23 37 13 3 23 -105 28 -72 4 -99 2
-92 -5z"/>
<path d="M7297 4676 c-75 -21 -69 -29 18 -22 100 9 123 15 104 27 -19 12 -65
10 -122 -5z"/>
<path d="M8046 4581 c-7 -11 67 -21 110 -14 19 3 34 10 34 14 0 12 -137 12
-144 0z"/>
<path d="M182 4255 c-7 -14 -12 -39 -12 -55 0 -29 -6 -38 -44 -64 -16 -11 -20
-29 -24 -100 -4 -70 -8 -88 -23 -96 -14 -8 -40 -6 -51 4 0 0 -4 69 -8 151 l-6
150 -2 -166 -2 -167 33 -5 c17 -3 59 -9 92 -12 122 -13 115 -7 115 -86 0 -73
2 -77 64 -127 29 -24 19 -364 -15 -495 l-10 -38 -37 29 c-49 39 -128 78 -186
93 -61 15 -75 4 -52 -42 11 -22 13 -36 6 -43 -5 -5 -10 -29 -10 -53 0 -35 6
-50 35 -82 19 -21 35 -41 35 -45 0 -3 -19 -6 -41 -6 -34 0 -39 -2 -30 -14 6
-7 32 -19 57 -26 88 -25 102 -75 79 -290 -8 -80 -15 -148 -15 -152 0 -5 -15
-8 -34 -8 -51 0 -88 -17 -84 -38 2 -10 11 -16 21 -14 24 4 21 -23 -5 -40 -36
-24 -17 -48 37 -48 39 0 47 3 55 24 5 13 18 27 28 30 11 4 23 17 27 29 4 12
10 132 14 267 8 279 14 307 85 343 21 11 41 29 45 41 37 100 68 1030 37 1101
l-14 30 -11 -28 c-6 -16 -11 -37 -11 -47 0 -10 -4 -21 -9 -24 -4 -3 -11 24
-14 60 -8 110 -46 113 -48 4 -1 -58 -3 -55 -28 38 -14 48 -23 52 -39 17z m70
-165 c59 -17 79 -51 76 -129 -2 -53 -6 -66 -20 -69 -14 -3 -18 7 -24 48 -10
76 -24 75 -36 -4 -5 -30 -25 -30 -41 1 -24 45 -27 163 -4 163 6 0 29 -5 49
-10z m82 -282 c15 -35 4 -88 -18 -88 -33 0 -48 59 -26 101 15 27 29 24 44 -13z
m-189 -602 c18 -13 17 -16 -19 -65 -65 -88 -96 -88 -82 2 11 69 55 97 101 63z
m24 -118 c-24 -34 -44 -65 -46 -67 -2 -2 -6 -1 -10 2 -11 11 29 87 60 113 16
14 32 23 34 20 2 -2 -15 -33 -38 -68z m71 2 c-6 -11 -15 -20 -21 -20 -5 0 -14
-12 -20 -27 -7 -20 -13 -23 -21 -15 -9 9 -4 20 22 47 38 39 57 46 40 15z"/>
<path d="M10 3821 c0 -12 57 -22 86 -15 13 3 21 10 18 15 -7 12 -104 12 -104
0z"/>
<path d="M22 3686 l-22 -46 25 0 c31 0 39 17 28 59 l-8 32 -23 -45z"/>
<path d="M7687 3674 c-5 -5 6 -13 24 -19 26 -9 36 -21 53 -65 l20 -54 11 44
c7 30 19 49 34 56 l23 12 -22 12 c-28 15 -132 25 -143 14z"/>
<path d="M8056 3613 c-3 -3 -6 -15 -6 -25 0 -20 -4 -21 -66 -18 -23 1 -45 -3
-49 -9 -3 -6 -17 -11 -30 -11 -13 0 -26 -4 -29 -9 -4 -5 39 -11 96 -14 57 -3
119 -9 138 -13 l35 -7 -33 37 c-17 20 -32 43 -32 51 0 16 -14 27 -24 18z"/>
<path d="M40 3541 c0 -19 38 -31 94 -31 54 0 75 13 39 24 -45 12 -133 17 -133
7z"/>
<path d="M182 3432 c-18 -31 -28 -122 -14 -122 15 0 34 73 30 113 -3 32 -3 32
-16 9z"/>
<path d="M7745 3340 c-8 -12 61 -12 90 0 15 6 6 9 -32 9 -28 1 -55 -3 -58 -9z"/>
<path d="M7991 3320 c-38 -18 -42 -22 -28 -33 8 -6 18 -23 20 -37 l4 -25 8 24
c8 23 10 23 97 19 115 -7 139 21 32 37 -23 3 -48 13 -54 20 -16 19 -26 19 -79
-5z"/>
<path d="M7812 3118 c-28 -28 4 -57 48 -43 33 11 17 55 -20 55 -9 0 -21 -5
-28 -12z"/>
<path d="M8040 3005 c19 -9 58 -18 85 -21 49 -4 50 -4 20 10 -16 7 -55 17 -85
20 l-55 7 35 -16z"/>
<path d="M7 2913 c-14 -14 17 -33 54 -33 50 0 50 16 1 29 -44 13 -47 13 -55 4z"/>
<path d="M106 2785 c-7 -29 2 -75 15 -75 12 0 12 87 0 94 -5 3 -12 -5 -15 -19z"/>
<path d="M7 2734 c-11 -12 3 -24 29 -24 27 0 32 15 8 24 -20 8 -29 8 -37 0z"/>
<path d="M8107 2653 c-10 -10 -8 -81 2 -88 5 -3 17 5 25 17 12 16 24 22 47 20
36 -3 31 13 -8 23 -16 3 -35 13 -44 21 -9 8 -19 11 -22 7z"/>
<path d="M11515 2444 c-38 -7 -90 -13 -115 -14 -63 -1 -76 -11 -57 -41 8 -13
21 -43 28 -66 18 -63 67 -72 55 -9 -14 70 -14 70 39 83 91 24 185 27 244 9 72
-21 91 -21 91 3 0 23 -16 37 -22 20 -3 -8 -23 -6 -66 10 -70 24 -97 24 -197 5z"/>
<path d="M8233 2405 c0 -22 2 -30 4 -17 2 12 2 30 0 40 -3 9 -5 -1 -4 -23z"/>
<path d="M8080 2406 c0 -9 -12 -16 -32 -18 l-33 -3 33 -18 c24 -13 32 -25 32
-45 1 -27 1 -27 15 6 l14 33 37 -16 c54 -22 67 -2 16 24 -22 11 -42 27 -45 36
-8 19 -37 20 -37 1z"/>
<path d="M11070 2393 c-18 -51 -26 -57 -101 -73 -88 -20 -120 -33 -137 -53
-21 -25 3 -28 49 -7 38 17 66 20 202 20 86 0 157 4 157 9 0 17 -30 33 -77 39
-47 7 -48 8 -53 46 -6 48 -26 58 -40 19z"/>
<path d="M10578 2370 c-128 -15 -238 -71 -238 -121 0 -10 -4 -19 -9 -19 -5 0
-11 -9 -14 -20 -6 -25 7 -25 41 -2 63 44 248 92 355 92 31 0 57 4 57 9 0 13
-26 21 -68 21 -53 0 -275 -40 -290 -53 -16 -13 -29 0 -15 14 14 14 176 56 251
65 75 9 102 24 42 22 -25 0 -75 -4 -112 -8z"/>
<path d="M3003 2339 c-22 -22 -15 -26 46 -32 75 -6 81 -10 81 -53 l0 -34 73 0
72 1 -24 19 c-13 11 -33 20 -46 20 -30 0 -49 22 -33 38 7 7 18 12 26 12 7 0
11 4 8 9 -3 4 -36 11 -73 14 -38 4 -79 9 -93 12 -14 4 -30 1 -37 -6z"/>
<path d="M11607 2333 c-4 -3 -7 -16 -7 -28 0 -27 -18 -45 -46 -45 -21 0 -39
-22 -27 -34 4 -3 25 -6 48 -6 22 0 46 -5 53 -12 8 -8 12 -8 12 -1 0 46 222 -6
274 -66 25 -28 56 -28 56 0 0 47 -102 104 -225 125 -54 9 -92 30 -100 54 -6
20 -25 26 -38 13z"/>
<path d="M3589 2289 c-12 -8 -12 -10 0 -18 15 -10 41 -4 41 9 0 13 -26 19 -41
9z"/>
<path d="M2736 2265 c-30 -31 -15 -62 25 -50 15 5 19 14 17 33 -4 31 -20 38
-42 17z"/>
<path d="M17 2229 c-40 -23 11 -32 73 -13 13 5 13 6 0 14 -20 13 -51 12 -73
-1z"/>
<path d="M2590 2216 c0 -9 5 -16 10 -16 6 0 10 4 10 9 0 6 -4 13 -10 16 -5 3
-10 -1 -10 -9z"/>
<path d="M8050 2166 c0 -52 16 -69 30 -32 10 26 30 32 90 27 14 -1 21 1 17 5
-7 8 -114 44 -129 44 -5 0 -8 -20 -8 -44z"/>
<path d="M2330 2181 l-55 -6 55 -7 c69 -8 197 2 178 13 -14 9 -91 9 -178 0z"/>
<path d="M3515 2180 c3 -6 43 -9 88 -9 59 1 74 3 52 9 -46 12 -147 12 -140 0z"/>
<path d="M3206 2151 c-8 -12 18 -21 59 -21 18 0 40 3 49 6 30 12 5 24 -49 24
-30 0 -56 -4 -59 -9z"/>
<path d="M11228 2149 c-117 -10 -140 -16 -179 -45 -23 -17 -46 -24 -76 -24
-24 0 -43 -4 -43 -9 0 -9 48 -21 86 -21 17 0 28 -8 34 -25 11 -29 15 -198 5
-214 -14 -24 7 -29 48 -11 24 11 79 21 132 24 50 4 109 9 133 12 l42 5 0 45
c0 43 1 44 33 44 32 0 66 14 56 24 -3 3 -23 11 -44 18 -47 15 -56 48 -16 58
36 8 36 26 1 33 -40 9 -38 22 10 55 21 15 39 30 40 35 0 9 -144 7 -262 -4z
m69 -45 c-11 -11 -82 -23 -101 -18 -15 5 -16 8 -5 15 15 10 116 13 106 3z
m-150 -30 c-3 -3 -12 -4 -19 -1 -8 3 -5 6 6 6 11 1 17 -2 13 -5z m113 -38 c0
-27 -15 -42 -25 -26 -8 13 3 50 16 50 5 0 9 -11 9 -24z m60 -21 c0 -8 -4 -15
-9 -15 -13 0 -22 16 -14 24 11 11 23 6 23 -9z m-127 -12 c-7 -2 -19 -2 -25 0
-7 3 -2 5 12 5 14 0 19 -2 13 -5z m114 -29 c-3 -3 -12 -4 -19 -1 -8 3 -5 6 6
6 11 1 17 -2 13 -5z m-104 -25 c8 -31 -2 -49 -29 -49 -27 0 -32 15 -9 24 20 7
19 26 -1 26 -8 0 -12 5 -9 10 11 18 43 11 48 -11z m112 -9 c3 -6 -1 -13 -10
-16 -19 -8 -30 0 -20 15 8 14 22 14 30 1z m28 -67 c-7 -2 -21 -2 -30 0 -10 3
-4 5 12 5 17 0 24 -2 18 -5z"/>
<path d="M2255 2123 c-87 -9 -115 -15 -110 -24 8 -12 365 -12 365 0 0 12 -194
30 -255 24z"/>
<path d="M2884 2119 c-4 -7 1 -18 12 -26 22 -16 66 -14 71 4 4 10 -4 14 -59
29 -9 3 -20 -1 -24 -7z"/>
<path d="M3366 2114 c-7 -19 10 -44 31 -44 10 0 13 9 11 27 -3 32 -32 43 -42
17z"/>
<path d="M3569 2104 c-1 -22 2 -142 4 -168 2 -14 -9 -18 -67 -21 -38 -3 -72
-7 -74 -10 -13 -13 15 -20 75 -19 75 2 93 14 102 71 6 34 9 38 38 39 68 3 70
18 3 24 -61 5 -65 6 -65 30 0 22 5 25 40 28 105 7 109 30 6 39 -55 5 -61 4
-62 -13z"/>
<path d="M8130 2038 c0 -51 -12 -63 -52 -52 -25 7 -35 17 -43 42 -5 18 -14 31
-20 29 -17 -6 -17 -53 1 -68 25 -21 167 -60 178 -49 5 5 -2 14 -17 21 -24 11
-27 18 -27 61 0 26 -4 48 -10 48 -5 0 -10 -15 -10 -32z"/>
<path d="M2280 2050 c-108 -19 -96 -29 30 -24 142 6 173 11 165 24 -7 12 -130
11 -195 0z"/>
<path d="M3282 2038 c5 -15 48 -18 48 -3 0 6 -11 11 -26 13 -18 3 -25 0 -22
-10z"/>
<path d="M1000 2027 c-42 -14 -50 -50 -11 -55 22 -4 81 40 81 60 0 11 -28 9
-70 -5z"/>
<path d="M2212 1985 c-66 -19 -94 -33 -87 -46 9 -14 42 -11 59 7 11 10 30 14
58 12 59 -4 57 -28 -2 -43 -50 -13 -105 -39 -115 -55 -14 -22 8 -31 29 -12 23
22 60 28 239 38 67 4 114 11 109 16 -4 4 -44 15 -87 23 -140 27 -117 38 72 34
110 -3 174 0 175 6 3 10 -88 20 -287 29 -81 4 -124 2 -163 -9z"/>
<path d="M1315 1970 c-3 -5 0 -13 9 -16 21 -8 61 -1 61 11 0 14 -62 19 -70 5z"/>
<path d="M927 1936 c-61 -17 -88 -43 -90 -87 -2 -32 0 -34 28 -31 40 4 138 32
132 38 -2 2 -24 8 -48 12 -60 10 -65 37 -10 52 23 6 41 15 41 20 0 6 -1 10 -2
9 -2 0 -25 -6 -51 -13z m-56 -89 c-13 -13 -26 -3 -16 12 3 6 11 8 17 5 6 -4 6
-10 -1 -17z"/>
<path d="M2950 1944 c-14 -2 -45 -10 -68 -16 l-44 -11 4 -177 c4 -209 9 -223
66 -189 45 26 169 29 226 5 69 -29 76 -14 75 159 0 161 -7 196 -42 213 -28 13
-173 24 -217 16z m107 -98 c-2 -6 -28 -12 -58 -14 -36 -2 -58 -8 -66 -19 -12
-15 -13 -15 -13 4 0 27 14 36 65 43 48 7 77 1 72 -14z m70 -8 c-3 -8 -6 -5 -6
6 -1 11 2 17 5 13 3 -3 4 -12 1 -19z m-29 -77 c3 -8 -1 -12 -9 -9 -7 2 -15 10
-17 17 -3 8 1 12 9 9 7 -2 15 -10 17 -17z m-88 -56 c0 -47 -23 -85 -51 -85
-22 0 -25 22 -5 39 7 6 16 30 20 53 4 22 9 45 13 51 10 16 23 -16 23 -58z m80
-47 c0 -7 -5 -20 -10 -28 -8 -12 -10 -9 -10 13 0 15 5 27 10 27 6 0 10 -6 10
-12z"/>
<path d="M3742 1938 c-24 -24 -3 -317 23 -311 12 3 19 217 10 281 -7 44 -13
50 -33 30z"/>
<path d="M1341 1864 c-13 -50 -9 -64 20 -64 15 0 19 7 19 33 0 40 -10 77 -20
77 -4 0 -13 -20 -19 -46z"/>
<path d="M10882 1873 c-30 -12 6 -23 78 -23 75 0 108 11 74 24 -19 7 -133 7
-152 -1z"/>
<path d="M11591 1856 c-14 -16 -18 -62 -8 -73 4 -3 50 0 103 7 55 7 132 10
180 7 49 -4 84 -2 84 3 0 14 -33 19 -179 23 -124 4 -135 5 -150 26 -16 20 -19
21 -30 7z"/>
<path d="M1020 1824 c-61 -10 -150 -37 -161 -50 -17 -20 -6 -26 25 -14 15 5
39 10 54 10 15 0 45 9 67 21 43 22 66 40 50 38 -6 -1 -21 -3 -35 -5z"/>
<path d="M8050 1821 c0 -17 59 -52 82 -49 19 3 17 6 -20 31 -43 28 -62 34 -62
18z"/>
<path d="M2238 1787 c-71 -16 -84 -27 -32 -27 48 0 80 -20 71 -44 -4 -11 -18
-16 -44 -16 -47 0 -87 -19 -91 -44 -3 -15 0 -17 14 -11 19 8 98 20 207 31 71
7 75 24 6 24 -56 0 -60 11 -16 44 35 26 87 24 124 -4 21 -15 41 -20 64 -18 34
3 34 3 -31 35 -78 39 -182 50 -272 30z"/>
<path d="M1029 1754 c-10 -13 -10 -17 2 -25 35 -22 68 -5 42 23 -20 22 -27 22
-44 2z"/>
<path d="M878 1732 c-52 -19 -83 -42 -56 -42 9 0 29 7 44 15 16 8 37 15 46 15
24 0 48 11 48 21 0 13 -28 10 -82 -9z"/>
<path d="M2428 1723 c6 -2 18 -2 25 0 6 3 1 5 -13 5 -14 0 -19 -2 -12 -5z"/>
<path d="M3418 1713 c-40 -4 -49 -16 -22 -27 22 -9 135 -6 159 4 16 6 17 9 5
13 -24 9 -102 14 -142 10z"/>
<path d="M2592 1693 c2 -10 14 -19 27 -21 27 -4 21 12 -10 29 -18 9 -20 8 -17
-8z"/>
<path d="M2495 1660 c-4 -6 -3 -16 3 -22 6 -6 12 -6 17 2 4 6 3 16 -3 22 -6 6
-12 6 -17 -2z"/>
<path d="M11455 1645 c-31 -30 -31 -40 -3 -59 34 -24 47 -20 65 20 17 34 17
36 -2 50 -26 19 -32 18 -60 -11z"/>
<path d="M2222 1640 c-47 -11 -59 -25 -33 -40 28 -14 290 -49 297 -39 7 11 -5
16 -66 24 -71 9 -93 21 -87 46 4 17 0 19 -36 18 -23 -1 -57 -5 -75 -9z"/>
<path d="M11160 1601 c-8 -5 -56 -15 -105 -24 -50 -8 -106 -22 -125 -30 -34
-15 -34 -15 -8 -16 15 -1 72 6 126 15 138 21 162 18 177 -25 14 -44 32 -50 45
-17 8 23 15 26 54 26 89 0 64 32 -46 61 -82 21 -96 22 -118 10z"/>
<path d="M2150 1521 c-11 -8 13 -11 86 -11 57 0 133 -7 174 -16 49 -11 75 -13
82 -6 7 7 3 14 -13 23 -31 16 -308 24 -329 10z"/>
<path d="M11755 1507 c33 -18 40 -28 40 -52 0 -30 -1 -30 -64 -35 -40 -3 -66
-10 -69 -18 -2 -7 -13 -22 -25 -32 -28 -26 -14 -37 26 -21 20 9 94 15 200 18
147 5 168 7 165 21 -4 18 -36 30 -91 31 -31 1 -39 6 -47 27 -24 62 1 90 52 61
28 -16 29 -16 26 1 -3 15 -18 17 -128 20 l-125 2 40 -23z"/>
<path d="M2784 1440 c-5 -30 -13 -43 -33 -53 -23 -11 -26 -18 -26 -60 0 -53
18 -69 23 -20 4 36 9 39 99 48 69 8 103 1 103 -21 0 -21 -42 -34 -111 -34
l-59 0 -1 -65 c-1 -36 -2 -71 -3 -77 -1 -9 20 -13 72 -13 81 0 99 17 25 25
l-48 5 0 44 c0 41 2 45 30 53 35 9 90 1 104 -16 6 -6 11 -41 13 -76 3 -63 4
-64 16 -36 24 54 26 114 7 150 -24 44 -15 64 32 68 34 3 38 6 45 38 14 72 -17
108 -37 42 -10 -35 -16 -37 -141 -46 l-72 -5 -7 45 c-8 55 -23 57 -31 4z"/>
<path d="M3415 1470 c-3 -5 -3 -14 0 -20 8 -13 42 -13 47 1 2 6 19 14 38 19
32 7 30 8 -22 9 -31 1 -60 -3 -63 -9z"/>
<path d="M7 1424 c-8 -8 1 -24 14 -24 5 0 9 7 9 15 0 15 -12 20 -23 9z"/>
<path d="M3473 1413 c-30 -11 -9 -23 42 -23 56 0 73 13 33 24 -27 7 -58 7 -75
-1z"/>
<path d="M11125 1366 l7 -55 -38 -6 c-22 -3 -46 -7 -54 -8 -8 -1 -16 -11 -18
-21 -3 -16 0 -18 19 -12 13 4 76 11 139 16 63 5 117 10 120 10 18 4 -43 19
-77 19 -41 1 -43 2 -54 44 -22 83 -54 93 -44 13z"/>
<path d="M11333 1383 c-41 -8 -24 -20 36 -27 64 -7 191 2 191 14 0 17 -159 26
-227 13z"/>
<path d="M7 1364 c-11 -11 3 -24 24 -24 12 0 19 5 17 13 -5 14 -31 21 -41 11z"/>
<path d="M2180 1290 c20 -13 137 -13 145 0 4 6 -24 10 -77 10 -57 0 -78 -3
-68 -10z"/>
<path d="M2390 1271 c0 -9 53 -31 76 -31 19 0 17 27 -2 34 -24 9 -74 7 -74 -3z"/>
<path d="M2276 1234 c-3 -9 -6 -26 -6 -38 0 -30 -18 -46 -54 -47 l-31 0 38
-16 c20 -8 37 -19 37 -25 0 -5 -4 -7 -8 -4 -13 8 -67 -9 -65 -20 1 -5 19 -11
40 -14 36 -5 38 -7 38 -40 0 -27 -4 -35 -23 -40 -35 -8 -31 -21 8 -34 26 -8
36 -18 38 -36 5 -35 15 -42 45 -35 22 6 24 10 15 25 -6 9 -8 25 -4 35 7 18 32
18 124 -1 26 -5 32 -3 32 10 0 9 -1 16 -3 16 -9 0 -124 22 -139 26 -11 3 -18
15 -18 30 0 22 4 24 51 24 28 0 59 -4 69 -10 10 -5 26 -7 35 -4 14 6 13 8 -5
21 -12 8 -20 25 -20 41 0 37 -33 96 -56 101 -16 3 -17 1 -5 -13 22 -26 6 -48
-31 -44 -29 3 -34 8 -43 43 -5 22 -14 46 -18 53 -11 17 -34 15 -41 -4z m144
-134 c8 -5 11 -12 8 -16 -9 -9 -76 4 -83 16 -8 13 55 13 75 0z"/>
<path d="M2065 1201 c-7 -12 12 -24 25 -16 11 7 4 25 -10 25 -5 0 -11 -4 -15
-9z"/>
<path d="M1723 1193 c-75 -3 -93 -7 -93 -19 0 -11 6 -13 20 -9 18 6 20 3 14
-19 -3 -14 -2 -26 2 -25 5 0 56 6 114 13 l105 12 -35 19 -35 19 30 7 30 7 -30
-1 c-16 -1 -72 -3 -122 -4z"/>
<path d="M150 1150 c-31 -7 -29 -7 20 -8 30 0 66 4 80 8 20 6 16 8 -20 8 -25
0 -61 -4 -80 -8z"/>
<path d="M2040 959 c0 -206 0 -205 37 -177 8 7 8 16 -3 36 -10 20 -14 69 -14
185 0 98 -4 157 -10 157 -6 0 -10 -74 -10 -201z"/>
<path d="M489 1130 c-21 -17 -22 -21 -9 -30 38 -25 86 4 59 36 -15 19 -22 18
-50 -6z"/>
<path d="M864 1135 c-133 -15 -172 -23 -180 -36 -3 -6 19 -7 61 -3 61 6 69 5
84 -14 12 -16 33 -23 81 -29 62 -8 65 -9 68 -38 3 -19 -2 -33 -13 -41 -9 -7
-14 -17 -11 -23 12 -19 70 -23 210 -15 126 7 134 9 81 15 -33 4 -92 7 -132 8
-80 1 -97 14 -91 69 3 26 6 27 67 32 71 6 87 21 42 40 -17 7 -33 21 -36 31 -8
23 -59 24 -231 4z"/>
<path d="M11713 1136 c-39 -18 -43 -31 -8 -22 45 11 220 25 243 19 16 -4 22
-13 22 -33 0 -33 24 -58 36 -38 5 7 7 25 5 40 -3 33 16 36 72 13 45 -19 77
-19 77 -1 0 25 -32 30 -225 33 -150 3 -197 0 -222 -11z"/>
<path d="M1452 1133 c-6 -2 -10 -8 -7 -13 6 -10 55 0 55 11 0 10 -27 11 -48 2z"/>
<path d="M2097 1133 c-14 -13 -6 -23 18 -23 28 0 34 15 9 24 -19 7 -19 7 -27
-1z"/>
<path d="M3143 1119 c-57 -16 -51 -32 8 -25 106 13 129 18 129 27 0 11 -95 10
-137 -2z"/>
<path d="M1640 1093 c-19 -1 -63 -6 -97 -9 -35 -3 -63 -9 -63 -13 0 -9 118
-51 143 -51 9 0 16 5 15 12 -4 17 53 27 195 35 122 6 153 14 105 27 -23 6
-234 6 -298 -1z"/>
<path d="M11210 1030 c-5 -10 -20 -22 -31 -25 -19 -6 -16 -9 21 -26 41 -19 44
-19 62 -2 19 17 20 17 34 -2 8 -10 14 -33 14 -51 0 -37 26 -66 36 -40 3 9 3
37 -1 61 l-6 46 68 -6 c47 -5 64 -3 53 4 -8 5 -58 13 -112 17 -69 4 -98 10
-98 19 0 22 -29 26 -40 5z"/>
<path d="M17 993 c-4 -3 -2 -12 4 -20 13 -15 57 -17 79 -3 13 9 13 11 0 20
-17 11 -73 13 -83 3z"/>
<path d="M1652 974 c-14 -10 -22 -24 -20 -37 2 -18 -3 -23 -30 -25 -48 -5 -68
4 -52 23 11 13 8 15 -18 15 -16 0 -35 -6 -41 -14 -23 -27 36 -46 141 -46 84 1
91 2 74 15 -28 21 -14 29 65 33 58 4 68 7 58 18 -9 12 -5 14 27 15 75 2 -5 17
-96 18 -63 1 -91 -3 -108 -15z m101 -11 c-7 -2 -19 -2 -25 0 -7 3 -2 5 12 5
14 0 19 -2 13 -5z"/>
<path d="M10930 976 c0 -9 5 -16 10 -16 6 0 10 4 10 9 0 6 -4 13 -10 16 -5 3
-10 -1 -10 -9z"/>
<path d="M2130 970 c-12 -8 -9 -10 13 -10 15 0 27 5 27 10 0 13 -20 13 -40 0z"/>
<path d="M590 875 c0 -41 -3 -42 -30 -15 -22 22 -78 27 -111 9 -24 -12 -16
-29 14 -29 l22 -1 -22 -18 c-28 -24 -29 -31 -3 -31 12 0 32 -12 45 -26 27 -29
45 -25 45 12 0 31 39 34 47 4 7 -27 26 -25 38 2 6 13 19 24 30 26 37 7 40 22
6 28 -23 5 -39 17 -53 40 -11 19 -22 34 -24 34 -2 0 -4 -16 -4 -35z"/>
<path d="M2390 891 c0 -6 5 -13 10 -16 6 -3 10 1 10 9 0 9 -4 16 -10 16 -5 0
-10 -4 -10 -9z"/>
<path d="M2920 870 c0 -6 28 -10 65 -10 37 0 65 4 65 10 0 6 -28 10 -65 10
-37 0 -65 -4 -65 -10z"/>
<path d="M2131 854 c-19 -8 -32 -16 -30 -18 8 -7 209 7 209 14 0 9 -62 20
-110 19 -19 0 -50 -6 -69 -15z"/>
<path d="M1825 840 c-10 -17 5 -30 34 -30 34 0 44 9 30 27 -13 15 -55 18 -64
3z"/>
<path d="M1505 831 c-15 -6 -11 -9 20 -14 58 -10 255 -8 255 2 0 17 -235 27
-275 12z"/>
<path d="M1927 834 c-11 -11 3 -24 25 -24 17 0 18 2 8 15 -13 16 -23 19 -33 9z"/>
<path d="M2400 801 c0 -12 40 -41 57 -41 20 0 15 28 -6 40 -24 13 -51 13 -51
1z"/>
<path d="M128 773 c-3 -24 -8 -29 -41 -33 -56 -7 -45 -25 18 -28 60 -3 61 -2
49 57 -8 38 -22 40 -26 4z"/>
<path d="M1690 753 c-104 -4 -264 -24 -275 -34 -13 -12 33 -11 198 5 123 13
160 20 146 29 -2 1 -33 1 -69 0z"/>
<path d="M2040 726 c0 -9 5 -16 10 -16 6 0 10 4 10 9 0 6 -4 13 -10 16 -5 3
-10 -1 -10 -9z"/>
<path d="M2097 733 c-24 -23 9 -31 39 -8 18 14 18 14 -7 15 -14 0 -29 -3 -32
-7z"/>
<path d="M2175 730 c-8 -13 20 -24 40 -16 8 3 15 10 15 16 0 13 -47 13 -55 0z"/>
<path d="M2286 731 c-9 -14 20 -21 90 -21 63 0 85 12 42 24 -35 9 -126 7 -132
-3z"/>
<path d="M2780 730 c-19 -12 -4 -17 68 -23 36 -3 60 -11 75 -26 29 -26 53 -27
60 -1 3 13 14 20 29 20 34 0 68 11 68 21 0 17 -31 22 -54 10 -17 -10 -37 -10
-81 -2 -72 13 -145 14 -165 1z"/>
<path d="M238 713 c-10 -2 -18 -9 -18 -15 0 -14 149 -3 164 12 10 10 -110 13
-146 3z"/>
<path d="M2495 700 c-4 -6 3 -10 14 -10 25 0 27 6 6 13 -8 4 -17 2 -20 -3z"/>
<path d="M2185 670 c-3 -6 5 -10 19 -10 14 0 28 5 31 10 3 6 -5 10 -19 10 -14
0 -28 -4 -31 -10z"/>
<path d="M11956 671 c-9 -13 4 -41 18 -41 7 0 22 -20 34 -45 12 -25 26 -45 32
-45 16 0 12 42 -7 62 -9 10 -13 21 -9 26 4 4 56 8 114 9 138 2 142 2 117 12
-22 9 -206 31 -260 31 -19 0 -36 -4 -39 -9z"/>
<path d="M2110 655 c0 -8 4 -15 9 -15 5 0 14 7 21 15 10 13 9 15 -9 15 -12 0
-21 -6 -21 -15z"/>
<path d="M835 631 c-7 -13 17 -24 40 -19 9 1 16 8 16 13 0 14 -48 19 -56 6z"/>
<path d="M1295 631 c-7 -12 12 -24 25 -16 11 7 4 25 -10 25 -5 0 -11 -4 -15
-9z"/>
<path d="M1582 593 c3 -49 18 -63 53 -49 11 4 9 14 -11 51 -14 25 -30 45 -35
45 -6 0 -9 -21 -7 -47z"/>
<path d="M227 623 c-4 -3 -7 -19 -7 -35 0 -40 24 -31 28 10 3 30 -6 41 -21 25z"/>
<path d="M2810 601 c0 -12 52 -21 80 -14 22 6 23 7 4 14 -27 11 -84 11 -84 0z"/>
</g>
</svg>
